<svg width="36" height="28" viewBox="0 0 36 28" fill="none" xmlns="http://www.w3.org/2000/svg">
    <path
        d="M33.3191 17.8332L3.81283 18.0096C3.4536 18.0115 3.10587 17.8831 2.83418 17.648C2.56249 17.413 2.38529 17.0874 2.33548 16.7316L1.83593 13.1434C1.80555 12.9256 1.82393 12.7039 1.88976 12.4941C1.95558 12.2843 2.06721 12.0918 2.21655 11.9305C2.3659 11.7691 2.54923 11.643 2.7533 11.5612C2.95737 11.4794 3.17706 11.444 3.3965 11.4575L33.6546 13.3478C33.8618 13.3607 34.0641 13.417 34.2482 13.513C34.4323 13.609 34.5942 13.7426 34.7235 13.9051C34.8527 14.0676 34.9464 14.2555 34.9985 14.4565C35.0506 14.6575 35.0599 14.8672 35.0258 15.072L34.7749 16.5908C34.7176 16.9362 34.54 17.2503 34.2737 17.4776C34.0073 17.7049 33.6693 17.8309 33.3191 17.8332Z"
        fill="#377EC4" />
    <path d="M20.8821 12.5492L20.8843 17.9083L17.4869 17.8038L17.8529 12.501L20.8821 12.5492Z" fill="#CA0219" />
    <path
        d="M29.7243 15.318L29.1673 14.8343C29.1371 14.808 29.1138 14.7748 29.0992 14.7376C29.0846 14.7004 29.0791 14.6602 29.0833 14.6204L29.1665 13.8875C29.1716 13.8416 29.1638 13.7953 29.1439 13.7536C29.124 13.712 29.0929 13.6767 29.0541 13.6519C29.0152 13.627 28.9702 13.6135 28.9241 13.6129C28.8779 13.6122 28.8326 13.6245 28.793 13.6483L28.1609 14.028C28.1267 14.0491 28.0878 14.0612 28.0477 14.0634C28.0076 14.0655 27.9676 14.0576 27.9313 14.0403L27.2616 13.7363C27.2196 13.717 27.1729 13.7099 27.127 13.7158C27.0811 13.7217 27.0378 13.7404 27.002 13.7697C26.9662 13.799 26.9393 13.8378 26.9244 13.8816C26.9095 13.9254 26.9073 13.9726 26.9179 14.0176L27.0844 14.7359C27.0933 14.7747 27.0926 14.8152 27.0824 14.8538C27.0723 14.8923 27.0529 14.9279 27.0261 14.9573L26.5282 15.5006C26.4977 15.5349 26.4773 15.577 26.4691 15.6222C26.461 15.6674 26.4655 15.7139 26.4821 15.7567C26.4988 15.7995 26.5269 15.8369 26.5634 15.8647C26.5999 15.8925 26.6434 15.9098 26.689 15.9145L27.4245 15.9781C27.4644 15.9813 27.503 15.9944 27.5367 16.0161C27.5703 16.0378 27.5981 16.0675 27.6176 16.1025L27.9813 16.7426C28.0041 16.7826 28.0377 16.8154 28.0782 16.8374C28.1187 16.8593 28.1645 16.8695 28.2105 16.8669C28.2564 16.8642 28.3008 16.8487 28.3384 16.8222C28.3761 16.7957 28.4056 16.7592 28.4236 16.7168L28.7108 16.0389C28.7267 16.0021 28.7512 15.9696 28.7821 15.9442C28.8131 15.9187 28.8497 15.901 28.8889 15.8926L29.6116 15.7455C29.6565 15.7361 29.6979 15.7144 29.7312 15.6828C29.7644 15.6511 29.7882 15.6109 29.7999 15.5665C29.8116 15.5222 29.8107 15.4754 29.7974 15.4315C29.784 15.3877 29.7587 15.3483 29.7243 15.318Z"
        fill="#E3EAEF" />
    <g opacity="0.25">
        <path opacity="0.25"
            d="M28.3173 17.47C28.3647 17.4535 28.4079 17.4272 28.4443 17.3927C28.4806 17.3583 28.5092 17.3165 28.5282 17.2701L28.908 16.3752C28.9267 16.3315 28.9555 16.2929 28.9921 16.2626C29.0288 16.2324 29.0721 16.2113 29.1185 16.2011L30.0724 16.0062C30.1384 15.9936 30.1995 15.9624 30.2484 15.9163C30.2974 15.8703 30.3322 15.8112 30.3487 15.746C30.3659 15.681 30.3645 15.6125 30.3445 15.5484C30.3246 15.4842 30.287 15.4269 30.236 15.3831L29.5016 14.7462C29.4658 14.7152 29.4381 14.6758 29.4211 14.6316C29.404 14.5874 29.3981 14.5397 29.4038 14.4927L29.5123 13.5241C29.5192 13.4577 29.5074 13.3908 29.4785 13.3307C29.4495 13.2706 29.4044 13.2198 29.3482 13.1839C29.292 13.1479 29.2269 13.1283 29.1602 13.1272C29.0935 13.1262 29.0278 13.1436 28.9705 13.1777L28.1354 13.6796C28.0949 13.7039 28.0491 13.7179 28.0019 13.7205C27.9548 13.7231 27.9077 13.7143 27.8647 13.6946L26.9786 13.2931C26.9176 13.2648 26.8499 13.2542 26.7832 13.2626C26.7165 13.2711 26.6535 13.2981 26.6015 13.3407C26.5495 13.3833 26.5105 13.4396 26.489 13.5033C26.4676 13.567 26.4645 13.6355 26.4802 13.7009L26.6988 14.6488C26.7098 14.6947 26.7094 14.7426 26.6976 14.7883C26.6859 14.8339 26.6631 14.876 26.6313 14.9109L25.9746 15.6289C25.9293 15.6784 25.8988 15.7395 25.8864 15.8055C25.874 15.8714 25.8803 15.9395 25.9046 16.002C25.9288 16.0646 25.9701 16.1191 26.0237 16.1594C26.0773 16.1997 26.1411 16.2243 26.2079 16.2303L27.1769 16.313C27.2241 16.317 27.2696 16.3325 27.3095 16.3581C27.3495 16.3837 27.3825 16.4186 27.4059 16.4599L27.8863 17.3071C27.919 17.3655 27.9675 17.4134 28.0263 17.4455C28.0851 17.4775 28.1517 17.4923 28.2184 17.4881C28.2522 17.4875 28.2856 17.4813 28.3173 17.47ZM29.0605 16.1489C29.0128 16.1653 28.9692 16.1917 28.9325 16.2263C28.8957 16.2609 28.8668 16.3029 28.8476 16.3495L28.4678 17.2444C28.4461 17.2941 28.411 17.3367 28.3666 17.3677C28.3221 17.3986 28.2699 17.4167 28.2158 17.4199C28.1617 17.423 28.1078 17.4111 28.0601 17.3855C28.0123 17.3599 27.9726 17.3216 27.9452 17.2748L27.4648 16.4276C27.4357 16.377 27.3949 16.3342 27.3457 16.303C27.2964 16.2717 27.2403 16.2528 27.1822 16.248L26.2126 16.1632C26.158 16.1593 26.1056 16.1398 26.0618 16.107C26.018 16.0742 25.9846 16.0295 25.9656 15.9781C25.9448 15.9274 25.9392 15.8718 25.9495 15.818C25.9597 15.7641 25.9854 15.7145 26.0234 15.675L26.6794 14.9549C26.7184 14.9121 26.7465 14.8605 26.7611 14.8045C26.7758 14.7484 26.7766 14.6897 26.7636 14.6332L26.5449 13.6853C26.5329 13.6322 26.5359 13.5769 26.5536 13.5254C26.5712 13.474 26.6028 13.4284 26.6448 13.3939C26.6869 13.3593 26.7377 13.3371 26.7915 13.3297C26.8454 13.3224 26.9003 13.3301 26.9501 13.3521L27.837 13.7558C27.8902 13.7796 27.9484 13.7902 28.0066 13.7866C28.0648 13.783 28.1213 13.7653 28.1711 13.735L29.0041 13.2338C29.0509 13.2059 29.1045 13.1915 29.159 13.1924C29.2135 13.1932 29.2667 13.2092 29.3127 13.2385C29.3586 13.2679 29.3954 13.3095 29.4191 13.3586C29.4427 13.4077 29.4523 13.4624 29.4466 13.5166L29.338 14.4852C29.3307 14.543 29.3378 14.6017 29.3588 14.656C29.3798 14.7103 29.414 14.7585 29.4583 14.7964L30.1928 15.4333C30.2349 15.4685 30.2659 15.5151 30.2821 15.5675C30.2983 15.6199 30.2991 15.6759 30.2842 15.7288C30.2705 15.7818 30.2422 15.83 30.2025 15.8679C30.1628 15.9057 30.1133 15.9316 30.0596 15.9428L29.1057 16.1378L29.0605 16.1489Z"
            fill="#453438" />
    </g>
    <path
        d="M9.17911 15.1282L8.79667 14.7964C8.77629 14.7782 8.76057 14.7554 8.75085 14.7299C8.74114 14.7044 8.7377 14.6769 8.74085 14.6498L8.79659 14.1463C8.80061 14.1147 8.79559 14.0827 8.78211 14.0539C8.76862 14.0251 8.74723 14.0007 8.72043 13.9836C8.69363 13.9665 8.66252 13.9574 8.63072 13.9573C8.59892 13.9572 8.56774 13.9661 8.54083 13.983L8.1081 14.244C8.08419 14.2576 8.05741 14.2655 8.02991 14.267C8.00241 14.2685 7.97495 14.2635 7.94971 14.2525L7.49081 14.0432C7.46194 14.0299 7.42992 14.025 7.39839 14.0289C7.36686 14.0329 7.33708 14.0457 7.31243 14.0657C7.28777 14.0858 7.26923 14.1123 7.2589 14.1424C7.24858 14.1724 7.24689 14.2048 7.25402 14.2358L7.36989 14.7285C7.37572 14.7552 7.37509 14.783 7.36805 14.8094C7.36102 14.8359 7.34778 14.8603 7.32944 14.8806L6.98768 15.2548C6.96607 15.2779 6.95143 15.3066 6.94546 15.3377C6.93949 15.3688 6.94243 15.4009 6.95395 15.4304C6.96546 15.4599 6.98507 15.4855 7.01053 15.5043C7.03598 15.5231 7.06623 15.5344 7.09779 15.5367L7.60185 15.5806C7.62897 15.5835 7.65504 15.5927 7.67803 15.6074C7.70101 15.6221 7.72028 15.6419 7.73431 15.6653L7.98422 16.1066C7.99996 16.1337 8.02292 16.156 8.05056 16.171C8.0782 16.1859 8.10943 16.1929 8.14079 16.1911C8.17216 16.1894 8.20243 16.179 8.22824 16.1611C8.25405 16.1432 8.2744 16.1185 8.28703 16.0897L8.48434 15.6233C8.49492 15.5979 8.5115 15.5755 8.53266 15.5579C8.55381 15.5403 8.57892 15.5282 8.60581 15.5224L9.10363 15.4212C9.13464 15.415 9.16329 15.4002 9.18626 15.3785C9.20924 15.3568 9.22561 15.329 9.2335 15.2984C9.24139 15.2678 9.24046 15.2356 9.23084 15.2055C9.22122 15.1754 9.20328 15.1486 9.17911 15.1282Z"
        fill="#E3EAEF" />
    <g opacity="0.25">
        <path opacity="0.25"
            d="M8.21838 16.6142C8.25209 16.6023 8.28297 16.5836 8.30906 16.5592C8.33516 16.5348 8.35591 16.5052 8.37 16.4724L8.63017 15.8577C8.64223 15.829 8.66111 15.8037 8.68516 15.7839C8.70921 15.7641 8.73771 15.7504 8.76821 15.7441L9.42058 15.6099C9.46761 15.6007 9.51108 15.5784 9.54595 15.5455C9.58083 15.5126 9.60569 15.4706 9.61767 15.4242C9.63021 15.3778 9.62945 15.3288 9.61547 15.2828C9.60148 15.2368 9.57484 15.1957 9.53859 15.1641L9.03455 14.7251C9.01064 14.7054 8.99216 14.68 8.98087 14.6512C8.96958 14.6224 8.96587 14.5911 8.97009 14.5605L9.04451 13.8961C9.05007 13.8484 9.04209 13.8 9.02149 13.7566C9.00089 13.7132 8.96849 13.6765 8.92799 13.6506C8.8875 13.6248 8.84055 13.6108 8.7925 13.6104C8.74445 13.6099 8.69725 13.623 8.65628 13.6481L8.08438 13.9927C8.05793 14.0084 8.02808 14.0176 7.99737 14.0193C7.96665 14.0211 7.93596 14.0155 7.90787 14.0029L7.29929 13.7266C7.25572 13.7073 7.20769 13.7005 7.16048 13.7069C7.11328 13.7132 7.06876 13.7325 7.03183 13.7626C6.99489 13.7926 6.967 13.8323 6.95121 13.8773C6.93543 13.9222 6.93238 13.9706 6.94239 14.0172L7.0947 14.6679C7.10149 14.6982 7.10095 14.7296 7.09311 14.7596C7.08527 14.7896 7.07037 14.8173 7.04965 14.8403L6.59923 15.332C6.56626 15.3671 6.54409 15.411 6.53535 15.4584C6.52661 15.5058 6.53167 15.5548 6.54993 15.5994C6.56732 15.6439 6.59671 15.6827 6.63483 15.7115C6.67296 15.7403 6.71833 15.758 6.76589 15.7625L7.43144 15.8202C7.4621 15.8226 7.49168 15.8326 7.51752 15.8493C7.54335 15.866 7.56462 15.8889 7.57942 15.9158L7.91017 16.4949C7.93323 16.5369 7.96779 16.5715 8.0098 16.5945C8.05181 16.6175 8.09951 16.6281 8.14732 16.6249C8.17137 16.6245 8.19527 16.6208 8.21838 16.6142ZM8.72064 15.6882C8.687 15.7002 8.65619 15.7189 8.6301 15.7433C8.60402 15.7677 8.58323 15.7972 8.56903 15.83L8.30886 16.4446C8.29531 16.4776 8.27273 16.5061 8.24372 16.5269C8.21471 16.5476 8.18043 16.5598 8.14483 16.562C8.10922 16.5641 8.07372 16.5563 8.0424 16.5392C8.01107 16.5221 7.98519 16.4966 7.96771 16.4655L7.63832 15.8836C7.61741 15.8477 7.58821 15.8173 7.55316 15.7949C7.5181 15.7726 7.4782 15.7589 7.43681 15.7552L6.77126 15.6975C6.73621 15.6944 6.70273 15.6815 6.67465 15.6603C6.64657 15.6391 6.62502 15.6104 6.61246 15.5776C6.59837 15.5447 6.59429 15.5085 6.60076 15.4733C6.60722 15.4382 6.62393 15.4058 6.64878 15.3801L7.09848 14.8864C7.12661 14.8555 7.14689 14.8183 7.15762 14.7779C7.16836 14.7376 7.16922 14.6952 7.16015 14.6544L7.00856 14.0058C7.00031 13.9711 7.00197 13.9349 7.01335 13.9011C7.02473 13.8674 7.04537 13.8375 7.07291 13.815C7.10083 13.7925 7.13442 13.7782 7.16997 13.7736C7.20552 13.769 7.24164 13.7744 7.27434 13.7891L7.88083 14.0661C7.91879 14.0829 7.96023 14.0902 8.00164 14.0876C8.04304 14.0849 8.0832 14.0724 8.11872 14.0509L8.69062 13.7063C8.72141 13.688 8.75669 13.6787 8.79248 13.6795C8.82827 13.6802 8.86314 13.6909 8.89317 13.7104C8.92328 13.7291 8.94741 13.756 8.96271 13.7879C8.97801 13.8199 8.98384 13.8556 8.9795 13.8907L8.90507 14.5551C8.90025 14.5964 8.90565 14.6383 8.9208 14.6771C8.93596 14.7158 8.96041 14.7503 8.99199 14.7773L9.49531 15.2143C9.52223 15.2376 9.54198 15.2681 9.55222 15.3022C9.56247 15.3363 9.56281 15.3726 9.55319 15.4069C9.54499 15.4417 9.52691 15.4734 9.50112 15.4982C9.47533 15.523 9.44293 15.5398 9.40782 15.5465L8.75472 15.6786L8.72064 15.6882Z"
            fill="#453438" />
    </g>
    <path
        d="M20.3837 17.9052C20.3901 17.9029 20.3957 17.8987 20.3996 17.8931C20.4035 17.8876 20.4056 17.8809 20.4057 17.8742L20.3518 12.5144C20.3517 12.51 20.3507 12.5057 20.3489 12.5016C20.3471 12.4976 20.3445 12.494 20.3412 12.491C20.338 12.488 20.3342 12.4856 20.3301 12.4841C20.3259 12.4826 20.3215 12.4819 20.3171 12.4821C20.3127 12.4818 20.3083 12.4824 20.3042 12.4839C20.3001 12.4855 20.2963 12.4878 20.2932 12.4909C20.2901 12.494 20.2876 12.4977 20.2861 12.5018C20.2845 12.5059 20.2838 12.5103 20.284 12.5147L20.3379 17.8744C20.338 17.8788 20.339 17.8832 20.3408 17.8872C20.3426 17.8912 20.3452 17.8949 20.3484 17.8979C20.3517 17.9009 20.3555 17.9032 20.3596 17.9047C20.3638 17.9063 20.3682 17.9069 20.3726 17.9067L20.3837 17.9052Z"
        fill="#453438" />
    <path
        d="M17.9719 18.4299C17.9772 18.4272 17.9817 18.4233 17.985 18.4184C17.9884 18.4136 17.9904 18.408 17.9911 18.4021L18.2426 12.8419C18.2423 12.8333 18.2389 12.8251 18.233 12.8188C18.2272 12.8125 18.2192 12.8086 18.2106 12.8078C18.202 12.808 18.1938 12.8114 18.1875 12.8173C18.1812 12.8232 18.1773 12.8312 18.1764 12.8397L17.9241 18.3979C17.9243 18.4065 17.9277 18.4148 17.9336 18.421C17.9395 18.4273 17.9474 18.4313 17.956 18.4321L17.9719 18.4299Z"
        fill="#453438" />
    <path opacity="0.3"
        d="M30.4524 13.1488C30.4524 13.1488 28.2612 17.3559 24.9853 16.037C21.7094 14.7181 20.0177 12.7994 19.7621 12.9915C19.5064 13.1836 14.5404 16.5494 12.2196 15.622C9.89884 14.6946 8.23175 12.5382 8.47308 11.7758L30.4524 13.1488Z"
        fill="#111948" />
    <path
        d="M19.5948 12.4304C19.5948 12.4304 14.3838 16.2932 12.3516 15.4826L12.3495 15.4833C12.3404 15.4771 12.2369 15.422 12.0694 15.3239C11.775 15.0969 11.5888 14.7176 11.5569 14.1371C11.4996 13.0954 11.9936 12.474 12.763 12.1259C14.5998 12.993 16.3538 12.3972 17.2801 11.9358C18.0603 12.0572 18.8331 12.2223 19.5948 12.4304Z"
        fill="#CA0219" />
    <path opacity="0.4"
        d="M19.5948 12.4304C19.5948 12.4304 14.3838 16.2932 12.3516 15.4826L12.3495 15.4833C12.3404 15.4771 12.2369 15.422 12.0694 15.3239C11.775 15.0969 11.5888 14.7176 11.5569 14.1371C11.4996 13.0954 11.9936 12.474 12.763 12.1259C14.5998 12.993 16.3538 12.3972 17.2801 11.9358C18.0603 12.0572 18.8331 12.2223 19.5948 12.4304Z"
        fill="#8B0010" />
    <path
        d="M19.5948 12.4302C18.8331 12.2221 18.0603 12.057 17.2801 11.9356C15.8036 11.705 13.9543 11.5859 12.763 12.1256C11.9936 12.4737 11.4996 13.0952 11.5569 14.1368C11.5888 14.7173 11.775 15.0967 12.0693 15.3236C11.0808 14.7427 7.88389 12.6385 8.64438 10.1678C9.54038 7.25468 13.1951 8.5466 16.1305 9.73415C19.0659 10.9217 19.5868 12.4072 19.5948 12.4302Z"
        fill="#CA0219" />
    <path
        d="M19.5949 12.4302C19.5949 12.4302 24.5349 16.6338 26.616 15.9635L26.6181 15.9628C26.6285 15.9591 26.7361 15.9122 26.9087 15.8239C27.2179 15.6178 27.4285 15.2496 27.5007 14.6725C27.6278 13.6366 27.1759 12.9853 26.4329 12.5852C24.5407 13.3275 22.8304 12.615 21.9398 12.0934C21.1524 12.1613 20.3695 12.2737 19.5949 12.4302Z"
        fill="#CA0219" />
    <path opacity="0.4"
        d="M19.5949 12.4302C19.5949 12.4302 24.5349 16.6338 26.616 15.9635L26.6181 15.9628C26.6285 15.9591 26.7361 15.9122 26.9087 15.8239C27.2179 15.6178 27.4285 15.2496 27.5007 14.6725C27.6278 13.6366 27.1759 12.9853 26.4329 12.5852C24.5407 13.3275 22.8304 12.615 21.9398 12.0934C21.1524 12.1613 20.3695 12.2737 19.5949 12.4302Z"
        fill="#8B0010" />
    <path
        d="M19.5946 12.4304C20.3692 12.2739 21.1521 12.1614 21.9394 12.0936C23.4256 11.963 25.2795 11.9683 26.4326 12.5853C27.1756 12.9854 27.6275 13.6368 27.5003 14.6727C27.4282 15.2498 27.2176 15.618 26.9084 15.8241C27.9331 15.3097 31.2652 13.4264 30.6739 10.9084C29.9758 7.94372 26.2409 8.98787 23.2321 9.97501C20.2232 10.9621 19.6054 12.4079 19.5946 12.4304Z"
        fill="#CA0219" />
    <path
        d="M19.0203 12.2639C19.0203 12.2639 16.3527 11.944 14.7734 9.57683C13.1941 7.20967 19.0203 12.2639 19.0203 12.2639Z"
        fill="#8B0010" />
    <path
        d="M19.5918 12.5366C19.5918 12.5366 14.6047 10.5896 14.5092 8.91585L14.5874 8.51674C14.6762 8.32906 14.8419 8.14727 15.0999 7.97536C15.8698 7.46107 16.5719 7.62993 17.1808 8.12828C17.0786 8.55914 17.1195 9.23238 17.8771 10.0226C18.3923 10.5607 18.7534 10.8181 19.005 10.9291C19.2292 11.454 19.4251 11.9906 19.5918 12.5366Z"
        fill="#CA0219" />
    <path
        d="M19.6456 12.4734C19.6456 12.4734 19.3823 12.7711 19.0059 10.9288C18.7915 9.88584 17.9615 8.76776 17.1817 8.12799C16.5727 7.62964 15.8707 7.46078 15.1008 7.97507C14.8428 8.14698 14.6771 8.32877 14.5882 8.51645C14.6826 8.02984 14.8545 7.14902 15.0462 6.13036C15.3392 4.57821 16.6412 4.81123 16.6412 4.81123C20.9585 5.89761 19.6456 12.4734 19.6456 12.4734Z"
        fill="#CA0219" />
    <path
        d="M20.2402 12.3102C20.2402 12.3102 22.8184 12.0791 24.5214 10.1446C26.2244 8.21023 20.2402 12.3102 20.2402 12.3102Z"
        fill="#8B0010" />
    <path
        d="M19.7281 12.5403C19.7281 12.5403 24.8355 10.9329 25.0411 9.27093L25.0432 9.2702C25.0403 9.26186 25.0222 9.11618 24.9915 8.86734C24.9147 8.67431 24.764 8.48371 24.5176 8.29377C23.7828 7.72947 23.0702 7.85193 22.4294 8.30714C22.5018 8.74253 22.417 9.41055 21.6083 10.1488C21.0568 10.6524 20.6796 10.8846 20.4225 10.979C20.1629 11.4865 19.9311 12.0077 19.7281 12.5403Z"
        fill="#CA0219" />
    <path opacity="0.4"
        d="M19.5918 12.5366C19.5918 12.5366 14.6047 10.5896 14.5092 8.91585L14.5874 8.51674C14.6762 8.32906 14.8419 8.14727 15.0999 7.97536C15.8698 7.46107 16.5719 7.62993 17.1808 8.12828C17.0786 8.55914 17.1195 9.23238 17.8771 10.0226C18.3923 10.5607 18.7534 10.8181 19.005 10.9291C19.2292 11.454 19.4251 11.9906 19.5918 12.5366Z"
        fill="#8B0010" />
    <path opacity="0.4"
        d="M19.7281 12.5403C19.7281 12.5403 24.8355 10.9329 25.0411 9.27093L25.0432 9.2702C25.0403 9.26186 25.0222 9.11618 24.9915 8.86734C24.9147 8.67431 24.764 8.48371 24.5176 8.29377C23.7828 7.72947 23.0702 7.85193 22.4294 8.30714C22.5018 8.74253 22.417 9.41055 21.6083 10.1488C21.0568 10.6524 20.6796 10.8846 20.4225 10.979C20.1629 11.4865 19.9311 12.0077 19.7281 12.5403Z"
        fill="#8B0010" />
    <path
        d="M19.6452 12.4735C19.6452 12.4735 19.8755 12.5638 20.0261 11.9033C20.0887 11.6336 20.249 11.3157 20.4209 10.9774C20.9032 10.028 21.6057 8.89179 22.4277 8.30555C23.0685 7.85033 23.7811 7.72787 24.516 8.29217C24.7623 8.48212 24.913 8.67271 24.9898 8.86574C24.9284 8.37504 24.816 7.48356 24.6933 6.45537C24.5057 4.88625 23.1908 5.03187 23.1908 5.03187C18.8093 5.82469 19.6452 12.4735 19.6452 12.4735Z"
        fill="#CA0219" />
</svg>