<svg width="20" height="20" viewBox="0 0 20 20" fill="none" xmlns="http://www.w3.org/2000/svg">
<path d="M12.3839 8.9197C12.2691 8.96863 12.1462 8.99586 12.0214 8.99999C11.824 8.99846 11.6314 8.93912 11.4675 8.82936C11.297 8.72357 11.1661 8.56488 11.0949 8.37769C11.008 8.20028 10.9798 7.99998 11.0143 7.80558C11.0507 7.60845 11.1454 7.42666 11.2862 7.28365L12.2933 6.27994C12.3912 6.19128 12.5036 6.11999 12.6256 6.06916C12.84 5.98542 13.0768 5.97747 13.2964 6.04665C13.516 6.11583 13.7052 6.25795 13.8324 6.44932C13.9597 6.64068 14.0172 6.86973 13.9955 7.09827C13.9738 7.3268 13.8742 7.54102 13.7132 7.70521L12.7062 8.70892C12.6113 8.79663 12.5024 8.86787 12.3839 8.9197Z" fill="url(#paint0_linear_60291_10190)"/>
<path fill-rule="evenodd" clip-rule="evenodd" d="M9.74254 1.02985C10.2783 1.1638 10.6041 1.70673 10.4701 2.24253L9.97014 4.24253C9.83619 4.77832 9.29326 5.10408 8.75746 4.97013C8.22167 4.83619 7.89591 4.29325 8.02986 3.75746L8.52986 1.75746C8.66381 1.22166 9.20674 0.895901 9.74254 1.02985Z" fill="url(#paint1_linear_60291_10190)"/>
<path fill-rule="evenodd" clip-rule="evenodd" d="M18.9435 10.158C19.0954 10.689 18.7881 11.2425 18.2571 11.3944L16.275 11.9614C15.744 12.1133 15.1905 11.806 15.0386 11.275C14.8867 10.744 15.194 10.1905 15.725 10.0386L17.707 9.47157C18.238 9.31967 18.7916 9.62699 18.9435 10.158Z" fill="url(#paint2_linear_60291_10190)"/>
<path d="M4.5149 7.51783L0.182335 16.8767C-0.179912 17.7186 0.00763381 18.6962 0.655703 19.3443C1.30388 19.9925 2.28173 20.18 3.12368 19.8175L12.491 15.4791C12.6209 15.4143 12.7337 15.3197 12.82 15.2031C12.9063 15.0865 12.9638 14.9511 12.9878 14.808C13.0115 14.6638 13.0006 14.516 12.9558 14.3769C12.911 14.2378 12.8336 14.1114 12.7302 14.0082L5.98685 7.26962C5.88351 7.16624 5.757 7.08896 5.61781 7.0442C5.47862 6.99943 5.33076 6.98847 5.18648 7.01221C5.04238 7.03709 4.90629 7.09593 4.7895 7.18386C4.67271 7.2718 4.57857 7.38628 4.5149 7.51783Z" fill="url(#paint3_linear_60291_10190)"/>
<path fill-rule="evenodd" clip-rule="evenodd" d="M1.80128 3.98025C1.90955 4.00208 1.99791 4.09044 2.01975 4.19872C2.11191 4.6558 2.51576 4.99999 3 4.99999C3.48424 4.99999 3.88809 4.6558 3.98025 4.19872C4.00209 4.09044 4.09045 4.00208 4.19872 3.98025C4.65581 3.88809 5 3.48424 5 2.99999C5 2.51575 4.65581 2.1119 4.19872 2.01974C4.09045 1.99791 4.00209 1.90955 3.98025 1.80127C3.88809 1.34419 3.48424 0.999992 3 0.999992C2.51576 0.999992 2.11191 1.34419 2.01975 1.80127C1.99791 1.90955 1.90955 1.99791 1.80128 2.01974C1.34419 2.1119 1 2.51575 1 2.99999C1 3.48424 1.34419 3.88809 1.80128 3.98025Z" fill="url(#paint4_linear_60291_10190)"/>
<path fill-rule="evenodd" clip-rule="evenodd" d="M15.8013 3.98025C15.9096 4.00208 15.9979 4.09044 16.0197 4.19872C16.1119 4.6558 16.5158 4.99999 17 4.99999C17.4842 4.99999 17.8881 4.6558 17.9803 4.19872C18.0021 4.09044 18.0904 4.00208 18.1987 3.98025C18.6558 3.88809 19 3.48424 19 2.99999C19 2.51575 18.6558 2.1119 18.1987 2.01974C18.0904 1.99791 18.0021 1.90955 17.9803 1.80127C17.8881 1.34419 17.4842 0.999992 17 0.999992C16.5158 0.999992 16.1119 1.34419 16.0197 1.80127C15.9979 1.90955 15.9096 1.99791 15.8013 2.01974C15.3442 2.1119 15 2.51575 15 2.99999C15 3.48424 15.3442 3.88809 15.8013 3.98025Z" fill="url(#paint5_linear_60291_10190)"/>
<path fill-rule="evenodd" clip-rule="evenodd" d="M15.8013 17.9802C15.9096 18.0021 15.9979 18.0904 16.0197 18.1987C16.1119 18.6558 16.5158 19 17 19C17.4842 19 17.8881 18.6558 17.9803 18.1987C18.0021 18.0904 18.0904 18.0021 18.1987 17.9802C18.6558 17.8881 19 17.4842 19 17C19 16.5157 18.6558 16.1119 18.1987 16.0197C18.0904 15.9979 18.0021 15.9095 17.9803 15.8013C17.8881 15.3442 17.4842 15 17 15C16.5158 15 16.1119 15.3442 16.0197 15.8013C15.9979 15.9095 15.9096 15.9979 15.8013 16.0197C15.3442 16.1119 15 16.5157 15 17C15 17.4842 15.3442 17.8881 15.8013 17.9802Z" fill="url(#paint6_linear_60291_10190)"/>
<defs>
<linearGradient id="paint0_linear_60291_10190" x1="9.68658" y1="28.261" x2="9.58878" y2="0.999754" gradientUnits="userSpaceOnUse">
<stop stop-color="#5E5CE6"/>
<stop offset="0.526042" stop-color="#FF375F"/>
<stop offset="1" stop-color="#FF9F0A"/>
</linearGradient>
<linearGradient id="paint1_linear_60291_10190" x1="9.68658" y1="28.261" x2="9.58878" y2="0.999754" gradientUnits="userSpaceOnUse">
<stop stop-color="#5E5CE6"/>
<stop offset="0.526042" stop-color="#FF375F"/>
<stop offset="1" stop-color="#FF9F0A"/>
</linearGradient>
<linearGradient id="paint2_linear_60291_10190" x1="9.68658" y1="28.261" x2="9.58878" y2="0.999754" gradientUnits="userSpaceOnUse">
<stop stop-color="#5E5CE6"/>
<stop offset="0.526042" stop-color="#FF375F"/>
<stop offset="1" stop-color="#FF9F0A"/>
</linearGradient>
<linearGradient id="paint3_linear_60291_10190" x1="9.68658" y1="28.261" x2="9.58878" y2="0.999754" gradientUnits="userSpaceOnUse">
<stop stop-color="#5E5CE6"/>
<stop offset="0.526042" stop-color="#FF375F"/>
<stop offset="1" stop-color="#FF9F0A"/>
</linearGradient>
<linearGradient id="paint4_linear_60291_10190" x1="9.68658" y1="28.261" x2="9.58878" y2="0.999754" gradientUnits="userSpaceOnUse">
<stop stop-color="#5E5CE6"/>
<stop offset="0.526042" stop-color="#FF375F"/>
<stop offset="1" stop-color="#FF9F0A"/>
</linearGradient>
<linearGradient id="paint5_linear_60291_10190" x1="9.68658" y1="28.261" x2="9.58878" y2="0.999754" gradientUnits="userSpaceOnUse">
<stop stop-color="#5E5CE6"/>
<stop offset="0.526042" stop-color="#FF375F"/>
<stop offset="1" stop-color="#FF9F0A"/>
</linearGradient>
<linearGradient id="paint6_linear_60291_10190" x1="9.68658" y1="28.261" x2="9.58878" y2="0.999754" gradientUnits="userSpaceOnUse">
<stop stop-color="#5E5CE6"/>
<stop offset="0.526042" stop-color="#FF375F"/>
<stop offset="1" stop-color="#FF9F0A"/>
</linearGradient>
</defs>
</svg>
