<svg width="31" height="30" viewBox="0 0 31 30" fill="none" xmlns="http://www.w3.org/2000/svg">
    <rect x="0.5" width="30" height="30" rx="15" fill="url(#paint0_linear_56883_15724)" />
    <path
        d="M11.0752 21C10.1166 21 9.32402 20.6498 8.69729 19.9493C8.10743 19.2488 7.8125 18.1797 7.8125 16.7419C7.8125 14.8618 8.29176 13.2028 9.25029 11.765C10.2457 10.2903 11.7756 9.36866 13.8401 9L14.0613 10.4378C11.7388 11.0645 10.5775 12.1521 10.5775 13.7005C10.5775 14.3641 10.8908 14.7512 11.5176 14.8618C13.324 15.1567 14.2272 16.1521 14.2272 17.8479C14.2272 18.8433 13.9139 19.6175 13.2872 20.1705C12.6973 20.7235 11.96 21 11.0752 21ZM19.7019 21C18.7434 21 17.9507 20.6498 17.324 19.9493C16.7342 19.2488 16.4392 18.1797 16.4392 16.7419C16.4392 14.8618 16.9185 13.2028 17.877 11.765C18.8724 10.2903 20.4024 9.36866 22.4669 9L22.6881 10.4378C20.3655 11.0645 19.2042 12.1521 19.2042 13.7005C19.2042 14.3641 19.5176 14.7512 20.1443 14.8618C21.9507 15.1567 22.854 16.1521 22.854 17.8479C22.854 18.8433 22.5406 19.6175 21.9139 20.1705C21.324 20.7235 20.5867 21 19.7019 21Z"
        fill="#FFF8E0" />
    <defs>
        <linearGradient id="paint0_linear_56883_15724" x1="0.499533" y1="29.9998" x2="30.4996" y2="-0.000365264"
            gradientUnits="userSpaceOnUse">
            <stop stop-color="#1A1C1D" />
            <stop offset="1" stop-color="#333333" />
        </linearGradient>
    </defs>
</svg>