<svg width="20" height="16" viewBox="0 0 20 16" fill="none" xmlns="http://www.w3.org/2000/svg">
    <path
        d="M3.7535 7.96947C1.5126 7.96947 0 6.4096 0 4.09867C0 2.01884 1.73669 0.285645 4.08964 0.285645C6.66667 0.285645 8.57143 2.36548 8.57143 5.543C8.57143 12.7646 3.30532 15.6533 0 15.9999V12.8224C2.2409 12.418 4.76191 10.1649 4.87395 7.6806C4.7619 7.73838 4.31373 7.96947 3.7535 7.96947Z"
        fill="#0CA127" />
    <path
        d="M15.1821 7.96947C12.9412 7.96947 11.4286 6.4096 11.4286 4.09867C11.4286 2.01884 13.1653 0.285645 15.5182 0.285645C18.0952 0.285645 20 2.36548 20 5.543C20 12.7646 14.7339 15.6533 11.4286 15.9999V12.8224C13.6695 12.418 16.1905 10.1649 16.3025 7.6806C16.1905 7.73838 15.7423 7.96947 15.1821 7.96947Z"
        fill="#0CA127" />
</svg>