<svg width="20" height="16" viewBox="0 0 20 16" fill="none" xmlns="http://www.w3.org/2000/svg">
    <path
        d="M16.2465 8.03047C18.4874 8.03047 20 9.59034 20 11.9013C20 13.9811 18.2633 15.7143 15.9104 15.7143C13.3333 15.7143 11.4286 13.6345 11.4286 10.4569C11.4286 3.2353 16.6947 0.346642 20 9.99118e-07L20 3.17752C17.7591 3.58194 15.2381 5.83509 15.126 8.31934C15.2381 8.26156 15.6863 8.03047 16.2465 8.03047Z"
        fill="#0CA127" />
    <path
        d="M4.81793 8.03047C7.05882 8.03047 8.57143 9.59034 8.57143 11.9013C8.57143 13.9811 6.83473 15.7143 4.48179 15.7143C1.90476 15.7143 -2.77787e-07 13.6345 0 10.4569C-7.31056e-07 3.2353 5.26611 0.346641 8.57143 0V3.17752C6.33053 3.58194 3.80952 5.83509 3.69748 8.31933C3.80952 8.26156 4.2577 8.03047 4.81793 8.03047Z"
        fill="#0CA127" />
</svg>