<svg width="33" height="24" viewBox="0 0 33 24" fill="none" xmlns="http://www.w3.org/2000/svg">
    <path
        d="M7.2 9.6C6.354 9.6 5.55375 9.7725 4.8 10.0425V9.6C4.8 6.9525 6.9525 4.8 9.6 4.8C10.9252 4.8 12 3.72525 12 2.4C12 1.07475 10.9275 0 9.6 0C4.3065 0 0 4.305 0 9.6V16.8C0 20.7765 3.2235 24 7.2 24C11.1765 24 14.4 20.7765 14.4 16.8C14.4 12.8235 11.175 9.6 7.2 9.6Z"
        fill="#E22222" />
    <path opacity="0.4"
        d="M24.5994 9.6C23.7534 9.6 22.9532 9.77287 22.1994 10.0409V9.6C22.1994 6.9525 24.3519 4.8 26.9994 4.8C28.3247 4.8 29.3994 3.72525 29.3994 2.4C29.3994 1.07475 28.3247 0 26.9994 0C21.7059 0 17.3994 4.3065 17.3994 9.6V16.8C17.3994 20.7765 20.6229 24 24.5994 24C28.5759 24 31.7994 20.7765 31.7994 16.8C31.7994 12.8235 28.5744 9.6 24.5994 9.6Z"
        fill="#E22222" />
</svg>