<svg width="116" height="54" fill="none" xmlns="http://www.w3.org/2000/svg"><g clip-path="url(#prefix__clip0_61116_7160)"><path fill-rule="evenodd" clip-rule="evenodd" d="M110.214 3a4.8 4.8 0 110 9.6H82.786a4.8 4.8 0 110 9.6H97.87a4.8 4.8 0 010 9.6h-6.976c-3.343 0-6.052 2.149-6.052 4.8 0 1.767 1.371 3.367 4.114 4.8a4.8 4.8 0 110 9.6H32.043a4.8 4.8 0 110-9.6H5.3a4.8 4.8 0 110-9.6h27.429a4.8 4.8 0 000-9.6H15.586a4.8 4.8 0 110-9.6h27.428a4.8 4.8 0 110-9.6h67.2zm0 19.2a4.8 4.8 0 110 9.6 4.8 4.8 0 010-9.6z" fill="#F1F8F5"/><g clip-path="url(#prefix__clip1_61116_7160)"><path d="M31.796 0v33.136h12.089L54.5 14.727h27V0H31.796z" fill="#DB4437"/><path d="M31.796 0v33.136h12.089L54.5 14.727h27V0H31.796z" fill="url(#prefix__paint0_linear_61116_7160)"/><path d="M27.5 54h25.711l11.966-11.966v-8.898H43.823L27.5 5.062V54z" fill="#0F9D58"/><path d="M27.5 54h25.711l11.966-11.966v-8.898H43.823L27.5 5.062V54z" fill="url(#prefix__paint1_linear_61116_7160)"/><path d="M54.5 14.727l10.616 18.41L53.273 54H81.5V14.727h-27z" fill="#FFCD40"/><path d="M54.5 14.727l10.616 18.41L53.273 54H81.5V14.727h-27z" fill="url(#prefix__paint2_linear_61116_7160)"/><path d="M44.16 33.044L31.797 12.395l11.966 20.803.399-.154z" fill="#3E2723" fill-opacity=".1"/><path d="M64.87 33.535l-.245-.122-11.444 20.556 11.75-20.556-.06.122z" fill="#263238" fill-opacity=".1"/><path d="M54.5 14.727v6.444l24.055-6.444H54.5z" fill="url(#prefix__paint3_radial_61116_7160)"/><path d="M31.796 12.426l17.55 17.55-5.461 3.16-12.09-20.71z" fill="url(#prefix__paint4_radial_61116_7160)"/><path d="M53.21 54l6.444-24.024 5.461 3.16L53.212 54z" fill="url(#prefix__paint5_radial_61116_7160)"/><path d="M54.5 39.273c6.778 0 12.273-5.495 12.273-12.273S61.278 14.727 54.5 14.727 42.227 20.222 42.227 27 47.722 39.273 54.5 39.273z" fill="#F1F1F1"/><path d="M54.5 36.818c5.422 0 9.818-4.396 9.818-9.818s-4.396-9.818-9.818-9.818c-5.423 0-9.818 4.396-9.818 9.818s4.395 9.818 9.818 9.818z" fill="#4285F4"/><path d="M54.5 54c14.912 0 27-12.088 27-27S69.412 0 54.5 0s-27 12.088-27 27 12.088 27 27 27z" fill="url(#prefix__paint6_radial_61116_7160)"/><path d="M65.116 33.136a12.272 12.272 0 01-21.232 0L27.5 5.37l16.384 28.074a12.272 12.272 0 0021.232 0v-.307z" fill="#fff" fill-opacity=".1"/><path d="M54.807 14.727h-.154a12.272 12.272 0 110 24.546h.154c6.75 0 12.272-5.523 12.272-12.273s-5.522-12.273-12.272-12.273zM54.5 53.693a27 27 0 0027-26.846V27a27 27 0 11-54 0v-.153a27 27 0 0027 26.846z" fill="#3E2723" fill-opacity=".1"/><path d="M65.239 33.535a12.057 12.057 0 001.043-9.818 11.658 11.658 0 01-1.166 9.42L53.58 54 65.3 33.597l-.061-.062zM54.5.307a27 27 0 0127 26.846V27a27 27 0 10-54 0v.153A27 27 0 0154.5.307z" fill="#fff" fill-opacity=".2"/><path d="M54.5 14.42c-6.75 0-12.273 5.523-12.273 12.273V27c0-6.75 5.523-12.273 12.273-12.273h27v-.306h-27z" fill="#3E2723" fill-opacity=".2"/></g><path d="M96.745 25.701c.31.033.553.166.727.399a.992.992 0 01.24.794c-.034.31-.167.56-.402.75-.217.177-.481.248-.792.215l-3.828-.402-.4 3.802c-.032.31-.166.56-.401.75a.994.994 0 01-.794.24 1.074 1.074 0 01-.752-.402 1.12 1.12 0 01-.212-.816l.4-3.801-3.829-.402a1.12 1.12 0 01-.754-.377 1.12 1.12 0 01-.212-.816c.033-.31.158-.554.375-.73.235-.19.507-.268.818-.236l3.828.403.402-3.826c.033-.311.158-.554.375-.73.235-.19.508-.269.819-.236.31.033.553.166.727.399a.992.992 0 01.239.794l-.402 3.826 3.828.402zM106.546 41.26a.709.709 0 01.518.283.71.71 0 01.17.565.763.763 0 01-.286.534.736.736 0 01-.563.153l-2.724-.286-.285 2.705a.762.762 0 01-.285.535.708.708 0 01-.565.17.762.762 0 01-.535-.286.797.797 0 01-.151-.58l.284-2.706-2.724-.286a.797.797 0 01-.537-.268.796.796 0 01-.15-.58.736.736 0 01.266-.52.764.764 0 01.582-.168l2.724.286.287-2.722a.736.736 0 01.266-.52.765.765 0 01.583-.168.707.707 0 01.517.284.702.702 0 01.17.565l-.286 2.723 2.724.286zM108.859 8.877a.74.74 0 01.542.298c.143.162.203.36.178.591a.798.798 0 01-.299.56.772.772 0 01-.59.16l-2.854-.3-.298 2.834a.798.798 0 01-.299.56.74.74 0 01-.592.178.797.797 0 01-.56-.299.83.83 0 01-.158-.608l.297-2.834-2.853-.3a.838.838 0 01-.563-.28.84.84 0 01-.158-.609.773.773 0 01.28-.544.799.799 0 01.61-.176l2.854.3.299-2.852a.776.776 0 01.279-.544.802.802 0 01.611-.176.743.743 0 01.542.297c.143.163.202.36.178.592l-.3 2.852 2.854.3z" fill="#008060"/></g><defs><radialGradient id="prefix__paint3_radial_61116_7160" cx="0" cy="0" r="1" gradientUnits="userSpaceOnUse" gradientTransform="translate(53.334 14.727) scale(25.8034)"><stop stop-color="#3E2723" stop-opacity=".2"/><stop offset="1" stop-color="#3E2723" stop-opacity="0"/></radialGradient><radialGradient id="prefix__paint4_radial_61116_7160" cx="0" cy="0" r="1" gradientUnits="userSpaceOnUse" gradientTransform="translate(31.765 12.426) scale(23.9318)"><stop stop-color="#3E2723" stop-opacity=".2"/><stop offset="1" stop-color="#3E2723" stop-opacity="0"/></radialGradient><radialGradient id="prefix__paint5_radial_61116_7160" cx="0" cy="0" r="1" gradientUnits="userSpaceOnUse" gradientTransform="translate(54.438 27.03) scale(26.9693)"><stop stop-color="#263238" stop-opacity=".2"/><stop offset="1" stop-color="#263238" stop-opacity="0"/></radialGradient><radialGradient id="prefix__paint6_radial_61116_7160" cx="0" cy="0" r="1" gradientUnits="userSpaceOnUse" gradientTransform="translate(35.57 7.364) scale(54.2455)"><stop stop-color="#fff" stop-opacity=".1"/><stop offset="1" stop-color="#fff" stop-opacity="0"/></radialGradient><linearGradient id="prefix__paint0_linear_61116_7160" x1="34.036" y1="20.864" x2="50.144" y2="11.475" gradientUnits="userSpaceOnUse"><stop stop-color="#A52714" stop-opacity=".6"/><stop offset=".7" stop-color="#A52714" stop-opacity="0"/></linearGradient><linearGradient id="prefix__paint1_linear_61116_7160" x1="59.072" y1="48.324" x2="41.153" y2="37.831" gradientUnits="userSpaceOnUse"><stop stop-color="#055524" stop-opacity=".4"/><stop offset=".3" stop-color="#055524" stop-opacity="0"/></linearGradient><linearGradient id="prefix__paint2_linear_61116_7160" x1="62.753" y1="13.132" x2="67.263" y2="32.86" gradientUnits="userSpaceOnUse"><stop stop-color="#EA6100" stop-opacity=".3"/><stop offset=".7" stop-color="#EA6100" stop-opacity="0"/></linearGradient><clipPath id="prefix__clip0_61116_7160"><path fill="#fff" transform="translate(.5)" d="M0 0h115v54H0z"/></clipPath><clipPath id="prefix__clip1_61116_7160"><rect x="27.5" width="54" height="54" rx="27" fill="#fff"/></clipPath></defs></svg>