<svg width="197" height="101" fill="none" xmlns="http://www.w3.org/2000/svg"><path fill-rule="evenodd" clip-rule="evenodd" d="M188.743 0a8.257 8.257 0 010 16.515h-47.186a8.257 8.257 0 010 16.515h25.952a8.257 8.257 0 010 16.515h-12.002c-5.75 0-10.411 3.697-10.411 8.257 0 3.04 2.359 5.793 7.078 8.258a8.257 8.257 0 010 16.515h-97.91a8.257 8.257 0 110-16.515H8.257a8.257 8.257 0 110-16.515h47.186a8.257 8.257 0 100-16.515h-29.49a8.257 8.257 0 110-16.515h47.185a8.257 8.257 0 110-16.515h115.605zm0 33.03a8.257 8.257 0 110 16.515 8.257 8.257 0 010-16.515z" fill="#F6F6F7"/><path d="M86.704 80.216c21.825 0 39.517-17.693 39.517-39.518 0-21.826-17.692-39.518-39.517-39.518-21.826 0-39.518 17.692-39.518 39.517 0 21.826 17.692 39.519 39.518 39.519z" fill="#F6F6F7" stroke="#002D2D" stroke-width=".5"/><path fill-rule="evenodd" clip-rule="evenodd" d="M80.372 71.361c2.074.383 4.185.582 6.332.597 17.265 0 31.26-13.996 31.26-31.26 0-17.265-13.995-31.26-31.26-31.26-4.435 0-8.654.923-12.476 2.588A31.384 31.384 0 0058.86 26.473a31.127 31.127 0 00-3.417 14.225 31.146 31.146 0 007.886 20.756" fill="#EDEEEF"/><path d="M80.372 71.361c2.074.383 4.185.582 6.332.597 17.265 0 31.26-13.996 31.26-31.26 0-17.265-13.995-31.26-31.26-31.26-4.435 0-8.654.923-12.476 2.588A31.384 31.384 0 0058.86 26.473a31.127 31.127 0 00-3.417 14.225 31.146 31.146 0 007.886 20.756M67.001 64.968a31.23 31.23 0 008.498 4.922" stroke="#002D2D" stroke-width=".5" stroke-linecap="round"/><path d="M119.144 71.958l7.077 7.078" stroke="#002D2D" stroke-width=".5"/><path fill-rule="evenodd" clip-rule="evenodd" d="M125.077 77.892a5.717 5.717 0 000 8.085l13.077 13.077a5.717 5.717 0 108.085-8.085l-13.077-13.077a5.717 5.717 0 00-8.085 0z" fill="url(#prefix__paint0_linear_61164_13730)" stroke="#002D2D" stroke-width=".5"/><path d="M130.94 80.216l12.976 12.976" stroke="#EDEEEF" stroke-width=".5" stroke-linecap="round"/><path fill-rule="evenodd" clip-rule="evenodd" d="M79.036 27.132c0 13.681 11.091 24.772 24.773 24.772 2.688 0 5.275-.428 7.698-1.22-3.955 9.816-13.57 16.745-24.803 16.745-14.763 0-26.731-11.968-26.731-26.731 0-13.378 9.826-24.46 22.656-26.423a24.67 24.67 0 00-3.593 12.857z" fill="url(#prefix__paint1_linear_61164_13730)"/><path d="M87.293 18.874c-1.502 0-2.97.148-4.39.43m-4.287 1.312c-8.07 3.39-13.736 11.37-13.736 20.671" stroke="#BABFC3" stroke-width=".5" stroke-linecap="round"/><path d="M78.008 51.093a7.268 7.268 0 10-5.86-13.303 7.268 7.268 0 005.86 13.303z" stroke="#44474A" stroke-width=".5" stroke-linecap="round" stroke-linejoin="round"/><path d="M76.387 49.199a5.441 5.441 0 10-4.371-9.966 5.441 5.441 0 004.371 9.966z" fill="#44474A"/><path d="M76.179 41.04a.65.65 0 10-.522-1.188.65.65 0 00.522 1.189zM75.726 42.837a.325.325 0 10-.26-.594.325.325 0 00.26.594z" fill="#EDEEEF"/><path d="M102.987 39.479a7.227 7.227 0 10-5.807-13.237 7.227 7.227 0 005.807 13.237z" stroke="#44474A" stroke-width=".5" stroke-linecap="round" stroke-linejoin="round"/><path d="M103.256 37.954a5.472 5.472 0 10-4.412-10.017 5.472 5.472 0 004.412 10.017z" fill="#44474A"/><path d="M102.061 29.688a.65.65 0 10-.523-1.19.65.65 0 00.523 1.19zM101.606 31.482a.325.325 0 10-.261-.595.325.325 0 00.261.595z" fill="#EDEEEF"/><path d="M87.76 55.29c3.873-5.368 8.547-6.17 13.09-5.738M72.798 27.653c-1.415 4.995-5.548 7.23-10.56 8.568M88.01 20.98c4.633 2.34 9.076.811 13.455-1.97M100.692 47.191c-.353 1.66.271 2.994 1.757 3.376M86.097 53.593c1.459.863 2.018 2.226 1.294 3.58" stroke="#44474A" stroke-width=".5" stroke-linecap="round" stroke-linejoin="round"/><path d="M150.022 41.025h-9.645m17.105-9.175h-20.261 20.261zm8.257 0h-2.62 2.62zM43.855 66.977H34.21m4.129-10.354H18.078h20.26zm-27.132 0h-4.98 4.98z" stroke="#BABFC3" stroke-width=".5" stroke-linecap="round" stroke-linejoin="round"/><defs><linearGradient id="prefix__paint0_linear_61164_13730" x1="123.632" y1="77.115" x2="152.118" y2="86.749" gradientUnits="userSpaceOnUse"><stop stop-color="#D7D7D7"/><stop offset=".475" stop-color="#F3F3F3"/><stop offset="1" stop-color="#B9B9B9"/></linearGradient><linearGradient id="prefix__paint1_linear_61164_13730" x1="85.74" y1="14.275" x2="85.74" y2="67.429" gradientUnits="userSpaceOnUse"><stop stop-color="#fff"/><stop offset="1" stop-color="#E8EAEA"/></linearGradient></defs></svg>