<svg xmlns="http://www.w3.org/2000/svg" width="7" height="8" fill="none"><path fill-rule="evenodd" clip-rule="evenodd" d="M2.352 1.92L1.74 4.672l-.646.017a.276.276 0 00-.267.276v.276a.276.276 0 00.275.276h3.862a.276.276 0 00.276-.276v-.276a.276.276 0 00-.268-.276l-.645-.017-.611-2.752.55-.297a.276.276 0 00.147-.244v-.276a.276.276 0 00-.276-.275H1.93a.276.276 0 00-.276.275v.276a.276.276 0 00.146.244l.551.297zm2.308.431a1.103 1.103 0 00.581-.972v-.276A1.103 1.103 0 004.138 0H1.93A1.103 1.103 0 00.828 1.103v.276a1.103 1.103 0 00.58.972l-.336 1.511A1.103 1.103 0 000 4.965v.276a1.103 1.103 0 001.103 1.103h3.862A1.103 1.103 0 006.07 5.241v-.276a1.103 1.103 0 00-1.073-1.103l-.336-1.51z" fill="#1DB954"/><path fill-rule="evenodd" clip-rule="evenodd" d="M2.443 5.663a.414.414 0 01.315-.146h.552a.414.414 0 01.408.482l-.276 1.655a.414.414 0 01-.816 0L2.35 5.999a.414.414 0 01.093-.336zM1.24 3.862h1.38a.414.414 0 110 .827H1.24v-.827z" fill="#1DB954"/></svg>