<svg width="88" height="28" viewBox="0 0 88 28" fill="none" xmlns="http://www.w3.org/2000/svg">
    <g filter="url(#filter0_d_56910_14383)">
        <rect x="84" y="11.5" width="40" height="3" rx="1.5" transform="rotate(-180 84 11.5)" fill="#1879B9" />
    </g>
    <g filter="url(#filter1_d_56910_14383)">
        <path
            d="M26 12C26.705 12 27.3719 11.8563 28 11.6313V12C28 14.2063 26.2063 16 24 16C22.8956 16 22 16.8956 22 18C22 19.1044 22.8938 20 24 20C28.4113 20 32 16.4125 32 12V6C32 2.68625 29.3138 0 26 0C22.6863 0 20 2.68625 20 6C20 9.31375 22.6875 12 26 12Z"
            fill="url(#paint0_linear_56910_14383)" />
    </g>
    <g opacity="0.4" filter="url(#filter2_d_56910_14383)">
        <path
            d="M10 12C10.705 12 11.3719 11.8559 12 11.6326V12C12 14.2063 10.2063 16 8 16C6.89563 16 6 16.8956 6 18C6 19.1044 6.89563 20 8 20C12.4113 20 16 16.4113 16 12V6C16 2.68625 13.3138 0 10 0C6.68625 0 4 2.68625 4 6C4 9.31375 6.6875 12 10 12Z"
            fill="url(#paint1_linear_56910_14383)" />
    </g>
    <defs>
        <filter id="filter0_d_56910_14383" x="40" y="8.5" width="48" height="11" filterUnits="userSpaceOnUse"
            color-interpolation-filters="sRGB">
            <feFlood flood-opacity="0" result="BackgroundImageFix" />
            <feColorMatrix in="SourceAlpha" type="matrix" values="0 0 0 0 0 0 0 0 0 0 0 0 0 0 0 0 0 0 127 0"
                result="hardAlpha" />
            <feMorphology radius="2" operator="erode" in="SourceAlpha" result="effect1_dropShadow_56910_14383" />
            <feOffset dy="4" />
            <feGaussianBlur stdDeviation="3" />
            <feComposite in2="hardAlpha" operator="out" />
            <feColorMatrix type="matrix" values="0 0 0 0 0 0 0 0 0 0 0 0 0 0 0 0 0 0 0.25 0" />
            <feBlend mode="normal" in2="BackgroundImageFix" result="effect1_dropShadow_56910_14383" />
            <feBlend mode="normal" in="SourceGraphic" in2="effect1_dropShadow_56910_14383" result="shape" />
        </filter>
        <filter id="filter1_d_56910_14383" x="16" y="0" width="20" height="28" filterUnits="userSpaceOnUse"
            color-interpolation-filters="sRGB">
            <feFlood flood-opacity="0" result="BackgroundImageFix" />
            <feColorMatrix in="SourceAlpha" type="matrix" values="0 0 0 0 0 0 0 0 0 0 0 0 0 0 0 0 0 0 127 0"
                result="hardAlpha" />
            <feMorphology radius="2" operator="erode" in="SourceAlpha" result="effect1_dropShadow_56910_14383" />
            <feOffset dy="4" />
            <feGaussianBlur stdDeviation="3" />
            <feComposite in2="hardAlpha" operator="out" />
            <feColorMatrix type="matrix" values="0 0 0 0 0 0 0 0 0 0 0 0 0 0 0 0 0 0 0.25 0" />
            <feBlend mode="normal" in2="BackgroundImageFix" result="effect1_dropShadow_56910_14383" />
            <feBlend mode="normal" in="SourceGraphic" in2="effect1_dropShadow_56910_14383" result="shape" />
        </filter>
        <filter id="filter2_d_56910_14383" x="0" y="0" width="20" height="28" filterUnits="userSpaceOnUse"
            color-interpolation-filters="sRGB">
            <feFlood flood-opacity="0" result="BackgroundImageFix" />
            <feColorMatrix in="SourceAlpha" type="matrix" values="0 0 0 0 0 0 0 0 0 0 0 0 0 0 0 0 0 0 127 0"
                result="hardAlpha" />
            <feMorphology radius="2" operator="erode" in="SourceAlpha" result="effect1_dropShadow_56910_14383" />
            <feOffset dy="4" />
            <feGaussianBlur stdDeviation="3" />
            <feComposite in2="hardAlpha" operator="out" />
            <feColorMatrix type="matrix" values="0 0 0 0 0 0 0 0 0 0 0 0 0 0 0 0 0 0 0.25 0" />
            <feBlend mode="normal" in2="BackgroundImageFix" result="effect1_dropShadow_56910_14383" />
            <feBlend mode="normal" in="SourceGraphic" in2="effect1_dropShadow_56910_14383" result="shape" />
        </filter>
        <linearGradient id="paint0_linear_56910_14383" x1="30.125" y1="17.5" x2="18.3673" y2="16.2263"
            gradientUnits="userSpaceOnUse">
            <stop stop-color="#008DEA" />
            <stop offset="0.544231" stop-color="#33A8F5" />
            <stop offset="1" stop-color="#5EBFFF" />
        </linearGradient>
        <linearGradient id="paint1_linear_56910_14383" x1="1.43762" y1="2.5" x2="14.3014" y2="4.12224"
            gradientUnits="userSpaceOnUse">
            <stop stop-color="#6DDCFF" />
            <stop offset="0.56" stop-color="#3EA5D8" />
            <stop offset="1" stop-color="#1879B9" />
        </linearGradient>
    </defs>
</svg>