<svg width="88" height="28" viewBox="0 0 88 28" fill="none" xmlns="http://www.w3.org/2000/svg">
    <g filter="url(#filter0_d_56910_14372)">
        <rect x="4" y="8.5" width="40" height="3" rx="1.5" fill="#1879B9" />
    </g>
    <g filter="url(#filter1_d_56910_14372)">
        <path
            d="M62 8C61.295 8 60.6281 8.14375 60 8.36875V8C60 5.79375 61.7937 4 64 4C65.1044 4 66 3.10437 66 2C66 0.895625 65.1062 0 64 0C59.5887 0 56 3.5875 56 8V14C56 17.3137 58.6862 20 62 20C65.3137 20 68 17.3137 68 14C68 10.6862 65.3125 8 62 8Z"
            fill="url(#paint0_linear_56910_14372)" />
    </g>
    <g opacity="0.4" filter="url(#filter2_d_56910_14372)">
        <path
            d="M78 8C77.295 8 76.6281 8.14406 76 8.36744V8C76 5.79375 77.7937 4 80 4C81.1044 4 82 3.10437 82 2C82 0.895625 81.1044 0 80 0C75.5887 0 72 3.58875 72 8V14C72 17.3137 74.6862 20 78 20C81.3137 20 84 17.3137 84 14C84 10.6862 81.3125 8 78 8Z"
            fill="url(#paint1_linear_56910_14372)" />
    </g>
    <defs>
        <filter id="filter0_d_56910_14372" x="0" y="8.5" width="48" height="11" filterUnits="userSpaceOnUse"
            color-interpolation-filters="sRGB">
            <feFlood flood-opacity="0" result="BackgroundImageFix" />
            <feColorMatrix in="SourceAlpha" type="matrix" values="0 0 0 0 0 0 0 0 0 0 0 0 0 0 0 0 0 0 127 0"
                result="hardAlpha" />
            <feMorphology radius="2" operator="erode" in="SourceAlpha" result="effect1_dropShadow_56910_14372" />
            <feOffset dy="4" />
            <feGaussianBlur stdDeviation="3" />
            <feComposite in2="hardAlpha" operator="out" />
            <feColorMatrix type="matrix" values="0 0 0 0 0 0 0 0 0 0 0 0 0 0 0 0 0 0 0.25 0" />
            <feBlend mode="normal" in2="BackgroundImageFix" result="effect1_dropShadow_56910_14372" />
            <feBlend mode="normal" in="SourceGraphic" in2="effect1_dropShadow_56910_14372" result="shape" />
        </filter>
        <filter id="filter1_d_56910_14372" x="52" y="0" width="20" height="28" filterUnits="userSpaceOnUse"
            color-interpolation-filters="sRGB">
            <feFlood flood-opacity="0" result="BackgroundImageFix" />
            <feColorMatrix in="SourceAlpha" type="matrix" values="0 0 0 0 0 0 0 0 0 0 0 0 0 0 0 0 0 0 127 0"
                result="hardAlpha" />
            <feMorphology radius="2" operator="erode" in="SourceAlpha" result="effect1_dropShadow_56910_14372" />
            <feOffset dy="4" />
            <feGaussianBlur stdDeviation="3" />
            <feComposite in2="hardAlpha" operator="out" />
            <feColorMatrix type="matrix" values="0 0 0 0 0 0 0 0 0 0 0 0 0 0 0 0 0 0 0.25 0" />
            <feBlend mode="normal" in2="BackgroundImageFix" result="effect1_dropShadow_56910_14372" />
            <feBlend mode="normal" in="SourceGraphic" in2="effect1_dropShadow_56910_14372" result="shape" />
        </filter>
        <filter id="filter2_d_56910_14372" x="68" y="0" width="20" height="28" filterUnits="userSpaceOnUse"
            color-interpolation-filters="sRGB">
            <feFlood flood-opacity="0" result="BackgroundImageFix" />
            <feColorMatrix in="SourceAlpha" type="matrix" values="0 0 0 0 0 0 0 0 0 0 0 0 0 0 0 0 0 0 127 0"
                result="hardAlpha" />
            <feMorphology radius="2" operator="erode" in="SourceAlpha" result="effect1_dropShadow_56910_14372" />
            <feOffset dy="4" />
            <feGaussianBlur stdDeviation="3" />
            <feComposite in2="hardAlpha" operator="out" />
            <feColorMatrix type="matrix" values="0 0 0 0 0 0 0 0 0 0 0 0 0 0 0 0 0 0 0.25 0" />
            <feBlend mode="normal" in2="BackgroundImageFix" result="effect1_dropShadow_56910_14372" />
            <feBlend mode="normal" in="SourceGraphic" in2="effect1_dropShadow_56910_14372" result="shape" />
        </filter>
        <linearGradient id="paint0_linear_56910_14372" x1="57.875" y1="2.5" x2="69.6327" y2="3.77366"
            gradientUnits="userSpaceOnUse">
            <stop stop-color="#008DEA" />
            <stop offset="0.544231" stop-color="#33A8F5" />
            <stop offset="1" stop-color="#5EBFFF" />
        </linearGradient>
        <linearGradient id="paint1_linear_56910_14372" x1="86.5624" y1="17.5" x2="73.6986" y2="15.8778"
            gradientUnits="userSpaceOnUse">
            <stop stop-color="#6DDCFF" />
            <stop offset="0.56" stop-color="#3EA5D8" />
            <stop offset="1" stop-color="#1879B9" />
        </linearGradient>
    </defs>
</svg>