<svg width="402" height="108" viewBox="0 0 402 108" fill="none" xmlns="http://www.w3.org/2000/svg">
<g opacity="0.15">
<path d="M1.17647 37.5096C1.82622 37.5096 2.35294 36.9836 2.35294 36.3348C2.35294 35.686 1.82622 35.16 1.17647 35.16C0.526724 35.16 -2.29906e-08 35.686 -5.13509e-08 36.3348C-7.97112e-08 36.9836 0.526724 37.5096 1.17647 37.5096Z" fill="#282828"/>
<path d="M1.17647 44.5582C1.82622 44.5582 2.35294 44.0322 2.35294 43.3834C2.35294 42.7346 1.82622 42.2087 1.17647 42.2087C0.526723 42.2087 -3.31096e-07 42.7346 -3.59456e-07 43.3834C-3.87816e-07 44.0322 0.526723 44.5582 1.17647 44.5582Z" fill="#282828"/>
<path d="M1.17647 51.6068C1.82622 51.6068 2.35294 51.0809 2.35294 50.4321C2.35294 49.7833 1.82622 49.2573 1.17647 49.2573C0.526723 49.2573 -6.39201e-07 49.7833 -6.67561e-07 50.4321C-6.95922e-07 51.0809 0.526723 51.6068 1.17647 51.6068Z" fill="#323131"/>
<path d="M1.17647 58.6555C1.82622 58.6555 2.35294 58.1295 2.35294 57.4807C2.35294 56.8319 1.82622 56.3059 1.17647 56.3059C0.526723 56.3059 -9.47306e-07 56.8319 -9.75667e-07 57.4807C-1.00403e-06 58.1295 0.526723 58.6555 1.17647 58.6555Z" fill="#323131"/>
<path d="M1.17647 65.7041C1.82622 65.7041 2.35294 65.1781 2.35294 64.5293C2.35294 63.8805 1.82622 63.3545 1.17647 63.3545C0.526723 63.3545 -1.25541e-06 63.8805 -1.28377e-06 64.5293C-1.31213e-06 65.1781 0.526722 65.7041 1.17647 65.7041Z" fill="#514747"/>
<path d="M1.17647 72.7527C1.82622 72.7527 2.35294 72.2267 2.35294 71.5779C2.35294 70.9291 1.82622 70.4032 1.17647 70.4032C0.526722 70.4032 -1.56352e-06 70.9291 -1.59188e-06 71.5779C-1.62024e-06 72.2267 0.526722 72.7527 1.17647 72.7527Z" fill="#C4BFBF"/>
<path d="M1.17647 79.8013C1.82622 79.8013 2.35294 79.2754 2.35294 78.6266C2.35294 77.9778 1.82622 77.4518 1.17647 77.4518C0.526722 77.4518 -1.87162e-06 77.9778 -1.89998e-06 78.6266C-1.92834e-06 79.2754 0.526722 79.8013 1.17647 79.8013Z" fill="#676666"/>
<path d="M1.17647 86.85C1.82622 86.85 2.35294 86.324 2.35294 85.6752C2.35294 85.0264 1.82622 84.5004 1.17647 84.5004C0.526722 84.5004 -2.17973e-06 85.0264 -2.20809e-06 85.6752C-2.23645e-06 86.324 0.526722 86.85 1.17647 86.85Z" fill="#858282"/>
<path d="M1.17647 93.8986C1.82621 93.8986 2.35294 93.3726 2.35294 92.7238C2.35294 92.075 1.82621 91.549 1.17647 91.549C0.526721 91.549 -2.48783e-06 92.075 -2.51619e-06 92.7238C-2.54455e-06 93.3726 0.526721 93.8986 1.17647 93.8986Z" fill="#D6D2D2"/>
<path d="M1.17647 100.947C1.82621 100.947 2.35294 100.421 2.35294 99.7724C2.35294 99.1236 1.82621 98.5977 1.17647 98.5977C0.526721 98.5977 -2.79594e-06 99.1236 -2.8243e-06 99.7724C-2.85266e-06 100.421 0.526721 100.947 1.17647 100.947Z" fill="#EEE9E9"/>
<path d="M1.17647 107.996C1.82621 107.996 2.35294 107.47 2.35294 106.821C2.35294 106.172 1.82621 105.646 1.17647 105.646C0.526721 105.646 -3.10404e-06 106.172 -3.1324e-06 106.821C-3.16076e-06 107.47 0.526721 107.996 1.17647 107.996Z" fill="white"/>
<path d="M8.23529 37.5096C8.88504 37.5096 9.41177 36.9836 9.41177 36.3348C9.41177 35.686 8.88504 35.16 8.23529 35.16C7.58555 35.16 7.05882 35.686 7.05882 36.3348C7.05882 36.9836 7.58555 37.5096 8.23529 37.5096Z" fill="#282828"/>
<path d="M8.23529 44.5582C8.88504 44.5582 9.41176 44.0322 9.41176 43.3834C9.41176 42.7346 8.88504 42.2087 8.23529 42.2087C7.58555 42.2087 7.05882 42.7346 7.05882 43.3834C7.05882 44.0322 7.58555 44.5582 8.23529 44.5582Z" fill="#282828"/>
<path d="M8.23529 51.6068C8.88504 51.6068 9.41176 51.0809 9.41176 50.4321C9.41176 49.7833 8.88504 49.2573 8.23529 49.2573C7.58555 49.2573 7.05882 49.7833 7.05882 50.4321C7.05882 51.0809 7.58555 51.6068 8.23529 51.6068Z" fill="#323131"/>
<path d="M8.23529 58.6555C8.88504 58.6555 9.41176 58.1295 9.41176 57.4807C9.41176 56.8319 8.88504 56.3059 8.23529 56.3059C7.58555 56.3059 7.05882 56.8319 7.05882 57.4807C7.05882 58.1295 7.58555 58.6555 8.23529 58.6555Z" fill="#323131"/>
<path d="M8.23529 65.7041C8.88504 65.7041 9.41176 65.1781 9.41176 64.5293C9.41176 63.8805 8.88504 63.3545 8.23529 63.3545C7.58555 63.3545 7.05882 63.8805 7.05882 64.5293C7.05882 65.1781 7.58555 65.7041 8.23529 65.7041Z" fill="#514747"/>
<path d="M8.23529 72.7527C8.88504 72.7527 9.41176 72.2267 9.41176 71.5779C9.41176 70.9291 8.88504 70.4032 8.23529 70.4032C7.58555 70.4032 7.05882 70.9291 7.05882 71.5779C7.05882 72.2267 7.58555 72.7527 8.23529 72.7527Z" fill="#858282"/>
<path d="M8.23529 79.8013C8.88504 79.8013 9.41176 79.2754 9.41176 78.6266C9.41176 77.9778 8.88504 77.4518 8.23529 77.4518C7.58555 77.4518 7.05882 77.9778 7.05882 78.6266C7.05882 79.2754 7.58555 79.8013 8.23529 79.8013Z" fill="#676666"/>
<path d="M8.23529 86.85C8.88504 86.85 9.41176 86.324 9.41176 85.6752C9.41176 85.0264 8.88504 84.5004 8.23529 84.5004C7.58555 84.5004 7.05882 85.0264 7.05882 85.6752C7.05882 86.324 7.58555 86.85 8.23529 86.85Z" fill="#858282"/>
<path d="M8.23529 93.8986C8.88504 93.8986 9.41176 93.3726 9.41176 92.7238C9.41176 92.075 8.88504 91.549 8.23529 91.549C7.58554 91.549 7.05882 92.075 7.05882 92.7238C7.05882 93.3726 7.58554 93.8986 8.23529 93.8986Z" fill="#D6D2D2"/>
<path d="M8.23529 100.947C8.88504 100.947 9.41176 100.421 9.41176 99.7724C9.41176 99.1236 8.88504 98.5977 8.23529 98.5977C7.58554 98.5977 7.05882 99.1236 7.05882 99.7724C7.05882 100.421 7.58554 100.947 8.23529 100.947Z" fill="#EEE9E9"/>
<path d="M8.23529 107.996C8.88504 107.996 9.41176 107.47 9.41176 106.821C9.41176 106.172 8.88504 105.646 8.23529 105.646C7.58554 105.646 7.05882 106.172 7.05882 106.821C7.05882 107.47 7.58554 107.996 8.23529 107.996Z" fill="white"/>
<path d="M15.2941 37.5096C15.9439 37.5096 16.4706 36.9836 16.4706 36.3348C16.4706 35.686 15.9439 35.16 15.2941 35.16C14.6444 35.16 14.1176 35.686 14.1176 36.3348C14.1176 36.9836 14.6444 37.5096 15.2941 37.5096Z" fill="#282828"/>
<path d="M15.2941 44.5582C15.9439 44.5582 16.4706 44.0322 16.4706 43.3834C16.4706 42.7346 15.9439 42.2087 15.2941 42.2087C14.6444 42.2087 14.1176 42.7346 14.1176 43.3834C14.1176 44.0322 14.6444 44.5582 15.2941 44.5582Z" fill="#282828"/>
<path d="M15.2941 51.6068C15.9439 51.6068 16.4706 51.0809 16.4706 50.4321C16.4706 49.7833 15.9439 49.2573 15.2941 49.2573C14.6444 49.2573 14.1176 49.7833 14.1176 50.4321C14.1176 51.0809 14.6444 51.6068 15.2941 51.6068Z" fill="#323131"/>
<path d="M15.2941 58.6555C15.9439 58.6555 16.4706 58.1295 16.4706 57.4807C16.4706 56.8319 15.9439 56.3059 15.2941 56.3059C14.6444 56.3059 14.1176 56.8319 14.1176 57.4807C14.1176 58.1295 14.6444 58.6555 15.2941 58.6555Z" fill="#323131"/>
<path d="M15.2941 65.7041C15.9439 65.7041 16.4706 65.1781 16.4706 64.5293C16.4706 63.8805 15.9439 63.3545 15.2941 63.3545C14.6444 63.3545 14.1176 63.8805 14.1176 64.5293C14.1176 65.1781 14.6444 65.7041 15.2941 65.7041Z" fill="#514747"/>
<path d="M15.2941 72.7527C15.9439 72.7527 16.4706 72.2268 16.4706 71.5779C16.4706 70.9291 15.9439 70.4032 15.2941 70.4032C14.6444 70.4032 14.1176 70.9291 14.1176 71.5779C14.1176 72.2268 14.6444 72.7527 15.2941 72.7527Z" fill="#858282"/>
<path d="M15.2941 79.8013C15.9439 79.8013 16.4706 79.2754 16.4706 78.6266C16.4706 77.9778 15.9439 77.4518 15.2941 77.4518C14.6444 77.4518 14.1176 77.9778 14.1176 78.6266C14.1176 79.2754 14.6444 79.8013 15.2941 79.8013Z" fill="#676666"/>
<path d="M15.2941 86.85C15.9439 86.85 16.4706 86.324 16.4706 85.6752C16.4706 85.0264 15.9439 84.5004 15.2941 84.5004C14.6444 84.5004 14.1176 85.0264 14.1176 85.6752C14.1176 86.324 14.6444 86.85 15.2941 86.85Z" fill="#858282"/>
<path d="M15.2941 93.8986C15.9439 93.8986 16.4706 93.3726 16.4706 92.7238C16.4706 92.075 15.9439 91.5491 15.2941 91.5491C14.6444 91.5491 14.1176 92.075 14.1176 92.7238C14.1176 93.3726 14.6444 93.8986 15.2941 93.8986Z" fill="#D6D2D2"/>
<path d="M15.2941 100.947C15.9439 100.947 16.4706 100.421 16.4706 99.7724C16.4706 99.1236 15.9439 98.5977 15.2941 98.5977C14.6444 98.5977 14.1176 99.1236 14.1176 99.7724C14.1176 100.421 14.6444 100.947 15.2941 100.947Z" fill="#EEE9E9"/>
<path d="M15.2941 107.996C15.9439 107.996 16.4706 107.47 16.4706 106.821C16.4706 106.172 15.9439 105.646 15.2941 105.646C14.6444 105.646 14.1176 106.172 14.1176 106.821C14.1176 107.47 14.6444 107.996 15.2941 107.996Z" fill="white"/>
<path d="M22.3529 37.5096C23.0027 37.5096 23.5294 36.9836 23.5294 36.3348C23.5294 35.686 23.0027 35.16 22.3529 35.16C21.7032 35.16 21.1765 35.686 21.1765 36.3348C21.1765 36.9836 21.7032 37.5096 22.3529 37.5096Z" fill="#282828"/>
<path d="M22.3529 44.5582C23.0027 44.5582 23.5294 44.0322 23.5294 43.3834C23.5294 42.7346 23.0027 42.2087 22.3529 42.2087C21.7032 42.2087 21.1765 42.7346 21.1765 43.3834C21.1765 44.0322 21.7032 44.5582 22.3529 44.5582Z" fill="#282828"/>
<path d="M22.3529 51.6068C23.0027 51.6068 23.5294 51.0809 23.5294 50.4321C23.5294 49.7833 23.0027 49.2573 22.3529 49.2573C21.7032 49.2573 21.1765 49.7833 21.1765 50.4321C21.1765 51.0809 21.7032 51.6068 22.3529 51.6068Z" fill="#323131"/>
<path d="M22.3529 58.6555C23.0027 58.6555 23.5294 58.1295 23.5294 57.4807C23.5294 56.8319 23.0027 56.3059 22.3529 56.3059C21.7032 56.3059 21.1765 56.8319 21.1765 57.4807C21.1765 58.1295 21.7032 58.6555 22.3529 58.6555Z" fill="#323131"/>
<path d="M22.3529 65.7041C23.0027 65.7041 23.5294 65.1781 23.5294 64.5293C23.5294 63.8805 23.0027 63.3545 22.3529 63.3545C21.7032 63.3545 21.1765 63.8805 21.1765 64.5293C21.1765 65.1781 21.7032 65.7041 22.3529 65.7041Z" fill="#514747"/>
<path d="M22.3529 72.7527C23.0027 72.7527 23.5294 72.2268 23.5294 71.5779C23.5294 70.9291 23.0027 70.4032 22.3529 70.4032C21.7032 70.4032 21.1765 70.9291 21.1765 71.5779C21.1765 72.2268 21.7032 72.7527 22.3529 72.7527Z" fill="#858282"/>
<path d="M22.3529 79.8013C23.0027 79.8013 23.5294 79.2754 23.5294 78.6266C23.5294 77.9778 23.0027 77.4518 22.3529 77.4518C21.7032 77.4518 21.1765 77.9778 21.1765 78.6266C21.1765 79.2754 21.7032 79.8013 22.3529 79.8013Z" fill="#676666"/>
<path d="M22.3529 86.85C23.0027 86.85 23.5294 86.324 23.5294 85.6752C23.5294 85.0264 23.0027 84.5004 22.3529 84.5004C21.7032 84.5004 21.1765 85.0264 21.1765 85.6752C21.1765 86.324 21.7032 86.85 22.3529 86.85Z" fill="#858282"/>
<path d="M22.3529 93.8986C23.0027 93.8986 23.5294 93.3726 23.5294 92.7238C23.5294 92.075 23.0027 91.5491 22.3529 91.5491C21.7032 91.5491 21.1765 92.075 21.1765 92.7238C21.1765 93.3726 21.7032 93.8986 22.3529 93.8986Z" fill="#D6D2D2"/>
<path d="M22.3529 100.947C23.0027 100.947 23.5294 100.421 23.5294 99.7724C23.5294 99.1236 23.0027 98.5977 22.3529 98.5977C21.7032 98.5977 21.1765 99.1236 21.1765 99.7724C21.1765 100.421 21.7032 100.947 22.3529 100.947Z" fill="#EEE9E9"/>
<path d="M22.3529 107.996C23.0027 107.996 23.5294 107.47 23.5294 106.821C23.5294 106.172 23.0027 105.646 22.3529 105.646C21.7032 105.646 21.1765 106.172 21.1765 106.821C21.1765 107.47 21.7032 107.996 22.3529 107.996Z" fill="white"/>
<path d="M29.4118 37.5096C30.0615 37.5096 30.5882 36.9836 30.5882 36.3348C30.5882 35.686 30.0615 35.16 29.4118 35.16C28.762 35.16 28.2353 35.686 28.2353 36.3348C28.2353 36.9836 28.762 37.5096 29.4118 37.5096Z" fill="#282828"/>
<path d="M29.4118 44.5582C30.0615 44.5582 30.5882 44.0322 30.5882 43.3834C30.5882 42.7346 30.0615 42.2087 29.4118 42.2087C28.762 42.2087 28.2353 42.7346 28.2353 43.3834C28.2353 44.0322 28.762 44.5582 29.4118 44.5582Z" fill="#282828"/>
<path d="M29.4118 51.6068C30.0615 51.6068 30.5882 51.0809 30.5882 50.4321C30.5882 49.7833 30.0615 49.2573 29.4118 49.2573C28.762 49.2573 28.2353 49.7833 28.2353 50.4321C28.2353 51.0809 28.762 51.6068 29.4118 51.6068Z" fill="#323131"/>
<path d="M29.4118 58.6555C30.0615 58.6555 30.5882 58.1295 30.5882 57.4807C30.5882 56.8319 30.0615 56.3059 29.4118 56.3059C28.762 56.3059 28.2353 56.8319 28.2353 57.4807C28.2353 58.1295 28.762 58.6555 29.4118 58.6555Z" fill="#323131"/>
<path d="M29.4118 65.7041C30.0615 65.7041 30.5882 65.1781 30.5882 64.5293C30.5882 63.8805 30.0615 63.3545 29.4118 63.3545C28.762 63.3545 28.2353 63.8805 28.2353 64.5293C28.2353 65.1781 28.762 65.7041 29.4118 65.7041Z" fill="#514747"/>
<path d="M29.4118 72.7527C30.0615 72.7527 30.5882 72.2268 30.5882 71.5779C30.5882 70.9291 30.0615 70.4032 29.4118 70.4032C28.762 70.4032 28.2353 70.9291 28.2353 71.5779C28.2353 72.2268 28.762 72.7527 29.4118 72.7527Z" fill="#858282"/>
<path d="M29.4118 79.8013C30.0615 79.8013 30.5882 79.2754 30.5882 78.6266C30.5882 77.9778 30.0615 77.4518 29.4118 77.4518C28.762 77.4518 28.2353 77.9778 28.2353 78.6266C28.2353 79.2754 28.762 79.8013 29.4118 79.8013Z" fill="#676666"/>
<path d="M29.4118 86.85C30.0615 86.85 30.5882 86.324 30.5882 85.6752C30.5882 85.0264 30.0615 84.5004 29.4118 84.5004C28.762 84.5004 28.2353 85.0264 28.2353 85.6752C28.2353 86.324 28.762 86.85 29.4118 86.85Z" fill="#858282"/>
<path d="M29.4118 93.8986C30.0615 93.8986 30.5882 93.3726 30.5882 92.7238C30.5882 92.075 30.0615 91.5491 29.4118 91.5491C28.762 91.5491 28.2353 92.075 28.2353 92.7238C28.2353 93.3726 28.762 93.8986 29.4118 93.8986Z" fill="#D6D2D2"/>
<path d="M29.4118 100.947C30.0615 100.947 30.5882 100.421 30.5882 99.7724C30.5882 99.1236 30.0615 98.5977 29.4118 98.5977C28.762 98.5977 28.2353 99.1236 28.2353 99.7724C28.2353 100.421 28.762 100.947 29.4118 100.947Z" fill="#EEE9E9"/>
<path d="M29.4118 107.996C30.0615 107.996 30.5882 107.47 30.5882 106.821C30.5882 106.172 30.0615 105.646 29.4118 105.646C28.762 105.646 28.2353 106.172 28.2353 106.821C28.2353 107.47 28.762 107.996 29.4118 107.996Z" fill="white"/>
<path d="M36.4706 37.5096C37.1203 37.5096 37.6471 36.9836 37.6471 36.3348C37.6471 35.686 37.1203 35.16 36.4706 35.16C35.8208 35.16 35.2941 35.686 35.2941 36.3348C35.2941 36.9836 35.8208 37.5096 36.4706 37.5096Z" fill="#282828"/>
<path d="M36.4706 44.5582C37.1203 44.5582 37.6471 44.0322 37.6471 43.3834C37.6471 42.7346 37.1203 42.2087 36.4706 42.2087C35.8208 42.2087 35.2941 42.7346 35.2941 43.3834C35.2941 44.0322 35.8208 44.5582 36.4706 44.5582Z" fill="#282828"/>
<path d="M36.4706 51.6068C37.1203 51.6068 37.6471 51.0809 37.6471 50.4321C37.6471 49.7833 37.1203 49.2573 36.4706 49.2573C35.8208 49.2573 35.2941 49.7833 35.2941 50.4321C35.2941 51.0809 35.8208 51.6068 36.4706 51.6068Z" fill="#323131"/>
<path d="M36.4706 58.6555C37.1203 58.6555 37.6471 58.1295 37.6471 57.4807C37.6471 56.8319 37.1203 56.3059 36.4706 56.3059C35.8208 56.3059 35.2941 56.8319 35.2941 57.4807C35.2941 58.1295 35.8208 58.6555 36.4706 58.6555Z" fill="#323131"/>
<path d="M36.4706 65.7041C37.1203 65.7041 37.6471 65.1781 37.6471 64.5293C37.6471 63.8805 37.1203 63.3545 36.4706 63.3545C35.8208 63.3545 35.2941 63.8805 35.2941 64.5293C35.2941 65.1781 35.8208 65.7041 36.4706 65.7041Z" fill="#514747"/>
<path d="M36.4706 72.7527C37.1203 72.7527 37.6471 72.2268 37.6471 71.5779C37.6471 70.9291 37.1203 70.4032 36.4706 70.4032C35.8208 70.4032 35.2941 70.9291 35.2941 71.5779C35.2941 72.2268 35.8208 72.7527 36.4706 72.7527Z" fill="#858282"/>
<path d="M36.4706 79.8013C37.1203 79.8013 37.6471 79.2754 37.6471 78.6266C37.6471 77.9778 37.1203 77.4518 36.4706 77.4518C35.8208 77.4518 35.2941 77.9778 35.2941 78.6266C35.2941 79.2754 35.8208 79.8013 36.4706 79.8013Z" fill="#676666"/>
<path d="M36.4706 86.85C37.1203 86.85 37.6471 86.324 37.6471 85.6752C37.6471 85.0264 37.1203 84.5004 36.4706 84.5004C35.8208 84.5004 35.2941 85.0264 35.2941 85.6752C35.2941 86.324 35.8208 86.85 36.4706 86.85Z" fill="#858282"/>
<path d="M36.4706 93.8986C37.1203 93.8986 37.6471 93.3726 37.6471 92.7238C37.6471 92.075 37.1203 91.5491 36.4706 91.5491C35.8208 91.5491 35.2941 92.075 35.2941 92.7238C35.2941 93.3726 35.8208 93.8986 36.4706 93.8986Z" fill="#D6D2D2"/>
<path d="M36.4706 100.947C37.1203 100.947 37.6471 100.421 37.6471 99.7724C37.6471 99.1236 37.1203 98.5977 36.4706 98.5977C35.8208 98.5977 35.2941 99.1236 35.2941 99.7724C35.2941 100.421 35.8208 100.947 36.4706 100.947Z" fill="#EEE9E9"/>
<path d="M36.4706 107.996C37.1203 107.996 37.6471 107.47 37.6471 106.821C37.6471 106.172 37.1203 105.646 36.4706 105.646C35.8208 105.646 35.2941 106.172 35.2941 106.821C35.2941 107.47 35.8208 107.996 36.4706 107.996Z" fill="white"/>
<path d="M43.5294 37.5096C44.1792 37.5096 44.7059 36.9836 44.7059 36.3348C44.7059 35.686 44.1792 35.16 43.5294 35.16C42.8797 35.16 42.3529 35.686 42.3529 36.3348C42.3529 36.9836 42.8797 37.5096 43.5294 37.5096Z" fill="#282828"/>
<path d="M43.5294 44.5582C44.1792 44.5582 44.7059 44.0322 44.7059 43.3834C44.7059 42.7346 44.1792 42.2087 43.5294 42.2087C42.8797 42.2087 42.3529 42.7346 42.3529 43.3834C42.3529 44.0322 42.8797 44.5582 43.5294 44.5582Z" fill="#282828"/>
<path d="M43.5294 51.6068C44.1792 51.6068 44.7059 51.0809 44.7059 50.4321C44.7059 49.7833 44.1792 49.2573 43.5294 49.2573C42.8797 49.2573 42.3529 49.7833 42.3529 50.4321C42.3529 51.0809 42.8797 51.6068 43.5294 51.6068Z" fill="#323131"/>
<path d="M43.5294 58.6555C44.1792 58.6555 44.7059 58.1295 44.7059 57.4807C44.7059 56.8319 44.1792 56.3059 43.5294 56.3059C42.8797 56.3059 42.3529 56.8319 42.3529 57.4807C42.3529 58.1295 42.8797 58.6555 43.5294 58.6555Z" fill="#323131"/>
<path d="M43.5294 65.7041C44.1792 65.7041 44.7059 65.1781 44.7059 64.5293C44.7059 63.8805 44.1792 63.3545 43.5294 63.3545C42.8797 63.3545 42.3529 63.8805 42.3529 64.5293C42.3529 65.1781 42.8797 65.7041 43.5294 65.7041Z" fill="#514747"/>
<path d="M43.5294 72.7527C44.1792 72.7527 44.7059 72.2268 44.7059 71.5779C44.7059 70.9291 44.1792 70.4032 43.5294 70.4032C42.8797 70.4032 42.3529 70.9291 42.3529 71.5779C42.3529 72.2268 42.8797 72.7527 43.5294 72.7527Z" fill="#858282"/>
<path d="M43.5294 79.8013C44.1792 79.8013 44.7059 79.2754 44.7059 78.6266C44.7059 77.9778 44.1792 77.4518 43.5294 77.4518C42.8797 77.4518 42.3529 77.9778 42.3529 78.6266C42.3529 79.2754 42.8797 79.8013 43.5294 79.8013Z" fill="#676666"/>
<path d="M43.5294 86.85C44.1792 86.85 44.7059 86.324 44.7059 85.6752C44.7059 85.0264 44.1792 84.5004 43.5294 84.5004C42.8797 84.5004 42.3529 85.0264 42.3529 85.6752C42.3529 86.324 42.8797 86.85 43.5294 86.85Z" fill="#858282"/>
<path d="M43.5294 93.8986C44.1792 93.8986 44.7059 93.3726 44.7059 92.7238C44.7059 92.075 44.1792 91.5491 43.5294 91.5491C42.8797 91.5491 42.3529 92.075 42.3529 92.7238C42.3529 93.3726 42.8797 93.8986 43.5294 93.8986Z" fill="#D6D2D2"/>
<path d="M43.5294 100.947C44.1792 100.947 44.7059 100.421 44.7059 99.7724C44.7059 99.1236 44.1792 98.5977 43.5294 98.5977C42.8797 98.5977 42.3529 99.1236 42.3529 99.7724C42.3529 100.421 42.8797 100.947 43.5294 100.947Z" fill="#EEE9E9"/>
<path d="M43.5294 107.996C44.1792 107.996 44.7059 107.47 44.7059 106.821C44.7059 106.172 44.1792 105.646 43.5294 105.646C42.8797 105.646 42.3529 106.172 42.3529 106.821C42.3529 107.47 42.8797 107.996 43.5294 107.996Z" fill="white"/>
<path d="M50.5882 37.5096C51.238 37.5096 51.7647 36.9836 51.7647 36.3348C51.7647 35.686 51.238 35.16 50.5882 35.16C49.9385 35.16 49.4118 35.686 49.4118 36.3348C49.4118 36.9836 49.9385 37.5096 50.5882 37.5096Z" fill="#282828"/>
<path d="M50.5882 44.5582C51.238 44.5582 51.7647 44.0322 51.7647 43.3834C51.7647 42.7346 51.238 42.2087 50.5882 42.2087C49.9385 42.2087 49.4118 42.7346 49.4118 43.3834C49.4118 44.0322 49.9385 44.5582 50.5882 44.5582Z" fill="#282828"/>
<path d="M50.5882 51.6068C51.238 51.6068 51.7647 51.0809 51.7647 50.4321C51.7647 49.7833 51.238 49.2573 50.5882 49.2573C49.9385 49.2573 49.4118 49.7833 49.4118 50.4321C49.4118 51.0809 49.9385 51.6068 50.5882 51.6068Z" fill="#323131"/>
<path d="M50.5882 58.6555C51.238 58.6555 51.7647 58.1295 51.7647 57.4807C51.7647 56.8319 51.238 56.3059 50.5882 56.3059C49.9385 56.3059 49.4118 56.8319 49.4118 57.4807C49.4118 58.1295 49.9385 58.6555 50.5882 58.6555Z" fill="#323131"/>
<path d="M50.5882 65.7041C51.238 65.7041 51.7647 65.1781 51.7647 64.5293C51.7647 63.8805 51.238 63.3545 50.5882 63.3545C49.9385 63.3545 49.4118 63.8805 49.4118 64.5293C49.4118 65.1781 49.9385 65.7041 50.5882 65.7041Z" fill="#514747"/>
<path d="M50.5882 72.7527C51.238 72.7527 51.7647 72.2268 51.7647 71.5779C51.7647 70.9291 51.238 70.4032 50.5882 70.4032C49.9385 70.4032 49.4118 70.9291 49.4118 71.5779C49.4118 72.2268 49.9385 72.7527 50.5882 72.7527Z" fill="#858282"/>
<path d="M50.5882 79.8013C51.238 79.8013 51.7647 79.2754 51.7647 78.6266C51.7647 77.9778 51.238 77.4518 50.5882 77.4518C49.9385 77.4518 49.4118 77.9778 49.4118 78.6266C49.4118 79.2754 49.9385 79.8013 50.5882 79.8013Z" fill="#676666"/>
<path d="M50.5882 86.85C51.238 86.85 51.7647 86.324 51.7647 85.6752C51.7647 85.0264 51.238 84.5004 50.5882 84.5004C49.9385 84.5004 49.4118 85.0264 49.4118 85.6752C49.4118 86.324 49.9385 86.85 50.5882 86.85Z" fill="#858282"/>
<path d="M50.5882 93.8986C51.238 93.8986 51.7647 93.3726 51.7647 92.7238C51.7647 92.075 51.238 91.5491 50.5882 91.5491C49.9385 91.5491 49.4118 92.075 49.4118 92.7238C49.4118 93.3726 49.9385 93.8986 50.5882 93.8986Z" fill="#D6D2D2"/>
<path d="M50.5882 100.947C51.238 100.947 51.7647 100.421 51.7647 99.7724C51.7647 99.1236 51.238 98.5977 50.5882 98.5977C49.9385 98.5977 49.4118 99.1236 49.4118 99.7724C49.4118 100.421 49.9385 100.947 50.5882 100.947Z" fill="#EEE9E9"/>
<path d="M50.5882 107.996C51.238 107.996 51.7647 107.47 51.7647 106.821C51.7647 106.172 51.238 105.646 50.5882 105.646C49.9385 105.646 49.4118 106.172 49.4118 106.821C49.4118 107.47 49.9385 107.996 50.5882 107.996Z" fill="white"/>
<path d="M57.6471 37.5096C58.2968 37.5096 58.8235 36.9836 58.8235 36.3348C58.8235 35.686 58.2968 35.16 57.6471 35.16C56.9973 35.16 56.4706 35.686 56.4706 36.3348C56.4706 36.9836 56.9973 37.5096 57.6471 37.5096Z" fill="#282828"/>
<path d="M57.6471 44.5582C58.2968 44.5582 58.8235 44.0322 58.8235 43.3834C58.8235 42.7346 58.2968 42.2087 57.6471 42.2087C56.9973 42.2087 56.4706 42.7346 56.4706 43.3834C56.4706 44.0322 56.9973 44.5582 57.6471 44.5582Z" fill="#282828"/>
<path d="M57.6471 51.6068C58.2968 51.6068 58.8235 51.0809 58.8235 50.4321C58.8235 49.7833 58.2968 49.2573 57.6471 49.2573C56.9973 49.2573 56.4706 49.7833 56.4706 50.4321C56.4706 51.0809 56.9973 51.6068 57.6471 51.6068Z" fill="#323131"/>
<path d="M57.6471 58.6555C58.2968 58.6555 58.8235 58.1295 58.8235 57.4807C58.8235 56.8319 58.2968 56.3059 57.6471 56.3059C56.9973 56.3059 56.4706 56.8319 56.4706 57.4807C56.4706 58.1295 56.9973 58.6555 57.6471 58.6555Z" fill="#323131"/>
<path d="M57.6471 65.7041C58.2968 65.7041 58.8235 65.1781 58.8235 64.5293C58.8235 63.8805 58.2968 63.3545 57.6471 63.3545C56.9973 63.3545 56.4706 63.8805 56.4706 64.5293C56.4706 65.1781 56.9973 65.7041 57.6471 65.7041Z" fill="#514747"/>
<path d="M57.6471 72.7527C58.2968 72.7527 58.8235 72.2268 58.8235 71.5779C58.8235 70.9291 58.2968 70.4032 57.6471 70.4032C56.9973 70.4032 56.4706 70.9291 56.4706 71.5779C56.4706 72.2268 56.9973 72.7527 57.6471 72.7527Z" fill="#858282"/>
<path d="M57.6471 79.8013C58.2968 79.8013 58.8235 79.2754 58.8235 78.6266C58.8235 77.9778 58.2968 77.4518 57.6471 77.4518C56.9973 77.4518 56.4706 77.9778 56.4706 78.6266C56.4706 79.2754 56.9973 79.8013 57.6471 79.8013Z" fill="#676666"/>
<path d="M57.6471 86.85C58.2968 86.85 58.8235 86.324 58.8235 85.6752C58.8235 85.0264 58.2968 84.5004 57.6471 84.5004C56.9973 84.5004 56.4706 85.0264 56.4706 85.6752C56.4706 86.324 56.9973 86.85 57.6471 86.85Z" fill="#858282"/>
<path d="M57.6471 93.8986C58.2968 93.8986 58.8235 93.3726 58.8235 92.7238C58.8235 92.075 58.2968 91.5491 57.6471 91.5491C56.9973 91.5491 56.4706 92.075 56.4706 92.7238C56.4706 93.3726 56.9973 93.8986 57.6471 93.8986Z" fill="#D6D2D2"/>
<path d="M57.6471 100.947C58.2968 100.947 58.8235 100.421 58.8235 99.7724C58.8235 99.1236 58.2968 98.5977 57.6471 98.5977C56.9973 98.5977 56.4706 99.1236 56.4706 99.7724C56.4706 100.421 56.9973 100.947 57.6471 100.947Z" fill="#EEE9E9"/>
<path d="M57.6471 107.996C58.2968 107.996 58.8235 107.47 58.8235 106.821C58.8235 106.172 58.2968 105.646 57.6471 105.646C56.9973 105.646 56.4706 106.172 56.4706 106.821C56.4706 107.47 56.9973 107.996 57.6471 107.996Z" fill="white"/>
<path d="M64.7059 37.5096C65.3556 37.5096 65.8824 36.9836 65.8824 36.3348C65.8824 35.686 65.3556 35.16 64.7059 35.16C64.0561 35.16 63.5294 35.686 63.5294 36.3348C63.5294 36.9836 64.0561 37.5096 64.7059 37.5096Z" fill="#282828"/>
<path d="M64.7059 44.5582C65.3556 44.5582 65.8824 44.0322 65.8824 43.3834C65.8824 42.7346 65.3556 42.2087 64.7059 42.2087C64.0561 42.2087 63.5294 42.7346 63.5294 43.3834C63.5294 44.0322 64.0561 44.5582 64.7059 44.5582Z" fill="#282828"/>
<path d="M64.7059 51.6068C65.3556 51.6068 65.8824 51.0809 65.8824 50.4321C65.8824 49.7833 65.3556 49.2573 64.7059 49.2573C64.0561 49.2573 63.5294 49.7833 63.5294 50.4321C63.5294 51.0809 64.0561 51.6068 64.7059 51.6068Z" fill="#323131"/>
<path d="M64.7059 58.6555C65.3556 58.6555 65.8824 58.1295 65.8824 57.4807C65.8824 56.8319 65.3556 56.3059 64.7059 56.3059C64.0561 56.3059 63.5294 56.8319 63.5294 57.4807C63.5294 58.1295 64.0561 58.6555 64.7059 58.6555Z" fill="#323131"/>
<path d="M64.7059 65.7041C65.3556 65.7041 65.8824 65.1781 65.8824 64.5293C65.8824 63.8805 65.3556 63.3545 64.7059 63.3545C64.0561 63.3545 63.5294 63.8805 63.5294 64.5293C63.5294 65.1781 64.0561 65.7041 64.7059 65.7041Z" fill="#514747"/>
<path d="M64.7059 72.7527C65.3556 72.7527 65.8824 72.2268 65.8824 71.5779C65.8824 70.9291 65.3556 70.4032 64.7059 70.4032C64.0561 70.4032 63.5294 70.9291 63.5294 71.5779C63.5294 72.2268 64.0561 72.7527 64.7059 72.7527Z" fill="#858282"/>
<path d="M64.7059 79.8013C65.3556 79.8013 65.8824 79.2754 65.8824 78.6266C65.8824 77.9778 65.3556 77.4518 64.7059 77.4518C64.0561 77.4518 63.5294 77.9778 63.5294 78.6266C63.5294 79.2754 64.0561 79.8013 64.7059 79.8013Z" fill="#676666"/>
<path d="M64.7059 86.85C65.3556 86.85 65.8824 86.324 65.8824 85.6752C65.8824 85.0264 65.3556 84.5004 64.7059 84.5004C64.0561 84.5004 63.5294 85.0264 63.5294 85.6752C63.5294 86.324 64.0561 86.85 64.7059 86.85Z" fill="#858282"/>
<path d="M64.7059 93.8986C65.3556 93.8986 65.8824 93.3726 65.8824 92.7238C65.8824 92.075 65.3556 91.5491 64.7059 91.5491C64.0561 91.5491 63.5294 92.075 63.5294 92.7238C63.5294 93.3726 64.0561 93.8986 64.7059 93.8986Z" fill="#D6D2D2"/>
<path d="M64.7059 100.947C65.3556 100.947 65.8824 100.421 65.8824 99.7724C65.8824 99.1236 65.3556 98.5977 64.7059 98.5977C64.0561 98.5977 63.5294 99.1236 63.5294 99.7724C63.5294 100.421 64.0561 100.947 64.7059 100.947Z" fill="#EEE9E9"/>
<path d="M64.7059 107.996C65.3556 107.996 65.8824 107.47 65.8824 106.821C65.8824 106.172 65.3556 105.646 64.7059 105.646C64.0561 105.646 63.5294 106.172 63.5294 106.821C63.5294 107.47 64.0561 107.996 64.7059 107.996Z" fill="white"/>
<path d="M71.7647 37.5096C72.4145 37.5096 72.9412 36.9836 72.9412 36.3348C72.9412 35.686 72.4145 35.16 71.7647 35.16C71.115 35.16 70.5882 35.686 70.5882 36.3348C70.5882 36.9836 71.115 37.5096 71.7647 37.5096Z" fill="#282828"/>
<path d="M71.7647 44.5582C72.4145 44.5582 72.9412 44.0322 72.9412 43.3834C72.9412 42.7346 72.4145 42.2087 71.7647 42.2087C71.115 42.2087 70.5882 42.7346 70.5882 43.3834C70.5882 44.0322 71.115 44.5582 71.7647 44.5582Z" fill="#282828"/>
<path d="M71.7647 51.6068C72.4145 51.6068 72.9412 51.0809 72.9412 50.4321C72.9412 49.7833 72.4145 49.2573 71.7647 49.2573C71.115 49.2573 70.5882 49.7833 70.5882 50.4321C70.5882 51.0809 71.115 51.6068 71.7647 51.6068Z" fill="#323131"/>
<path d="M71.7647 58.6555C72.4145 58.6555 72.9412 58.1295 72.9412 57.4807C72.9412 56.8319 72.4145 56.3059 71.7647 56.3059C71.115 56.3059 70.5882 56.8319 70.5882 57.4807C70.5882 58.1295 71.115 58.6555 71.7647 58.6555Z" fill="#323131"/>
<path d="M71.7647 65.7041C72.4145 65.7041 72.9412 65.1781 72.9412 64.5293C72.9412 63.8805 72.4145 63.3545 71.7647 63.3545C71.115 63.3545 70.5882 63.8805 70.5882 64.5293C70.5882 65.1781 71.115 65.7041 71.7647 65.7041Z" fill="#4E4848"/>
<path d="M71.7647 72.7527C72.4144 72.7527 72.9412 72.2268 72.9412 71.5779C72.9412 70.9291 72.4145 70.4032 71.7647 70.4032C71.115 70.4032 70.5882 70.9291 70.5882 71.5779C70.5882 72.2268 71.115 72.7527 71.7647 72.7527Z" fill="#858282"/>
<path d="M71.7647 79.8013C72.4144 79.8013 72.9412 79.2754 72.9412 78.6266C72.9412 77.9778 72.4144 77.4518 71.7647 77.4518C71.115 77.4518 70.5882 77.9778 70.5882 78.6266C70.5882 79.2754 71.115 79.8013 71.7647 79.8013Z" fill="#676666"/>
<path d="M71.7647 86.85C72.4144 86.85 72.9412 86.324 72.9412 85.6752C72.9412 85.0264 72.4144 84.5004 71.7647 84.5004C71.115 84.5004 70.5882 85.0264 70.5882 85.6752C70.5882 86.324 71.115 86.85 71.7647 86.85Z" fill="#858282"/>
<path d="M71.7647 93.8986C72.4144 93.8986 72.9412 93.3726 72.9412 92.7238C72.9412 92.075 72.4144 91.5491 71.7647 91.5491C71.115 91.5491 70.5882 92.075 70.5882 92.7238C70.5882 93.3726 71.115 93.8986 71.7647 93.8986Z" fill="#D6D2D2"/>
<path d="M71.7647 100.947C72.4144 100.947 72.9412 100.421 72.9412 99.7724C72.9412 99.1236 72.4144 98.5977 71.7647 98.5977C71.115 98.5977 70.5882 99.1236 70.5882 99.7724C70.5882 100.421 71.115 100.947 71.7647 100.947Z" fill="#EEE9E9"/>
<path d="M71.7647 107.996C72.4144 107.996 72.9412 107.47 72.9412 106.821C72.9412 106.172 72.4144 105.646 71.7647 105.646C71.115 105.646 70.5882 106.172 70.5882 106.821C70.5882 107.47 71.115 107.996 71.7647 107.996Z" fill="white"/>
<path d="M78.8235 37.5096C79.4733 37.5096 80 36.9836 80 36.3348C80 35.686 79.4733 35.16 78.8235 35.16C78.1738 35.16 77.6471 35.686 77.6471 36.3348C77.6471 36.9836 78.1738 37.5096 78.8235 37.5096Z" fill="#282828"/>
<path d="M78.8235 44.5582C79.4733 44.5582 80 44.0322 80 43.3834C80 42.7346 79.4733 42.2087 78.8235 42.2087C78.1738 42.2087 77.6471 42.7346 77.6471 43.3834C77.6471 44.0322 78.1738 44.5582 78.8235 44.5582Z" fill="#282828"/>
<path d="M78.8235 51.6068C79.4733 51.6068 80 51.0809 80 50.4321C80 49.7833 79.4733 49.2573 78.8235 49.2573C78.1738 49.2573 77.6471 49.7833 77.6471 50.4321C77.6471 51.0809 78.1738 51.6068 78.8235 51.6068Z" fill="#323131"/>
<path d="M78.8235 58.6555C79.4733 58.6555 80 58.1295 80 57.4807C80 56.8319 79.4733 56.3059 78.8235 56.3059C78.1738 56.3059 77.6471 56.8319 77.6471 57.4807C77.6471 58.1295 78.1738 58.6555 78.8235 58.6555Z" fill="#323131"/>
<path d="M78.8235 65.7041C79.4733 65.7041 80 65.1781 80 64.5293C80 63.8805 79.4733 63.3545 78.8235 63.3545C78.1738 63.3545 77.6471 63.8805 77.6471 64.5293C77.6471 65.1781 78.1738 65.7041 78.8235 65.7041Z" fill="#4E4848"/>
<path d="M78.8235 72.7527C79.4733 72.7527 80 72.2268 80 71.5779C80 70.9291 79.4733 70.4032 78.8235 70.4032C78.1738 70.4032 77.6471 70.9291 77.6471 71.5779C77.6471 72.2268 78.1738 72.7527 78.8235 72.7527Z" fill="#858282"/>
<path d="M78.8235 79.8013C79.4733 79.8013 80 79.2754 80 78.6266C80 77.9778 79.4733 77.4518 78.8235 77.4518C78.1738 77.4518 77.6471 77.9778 77.6471 78.6266C77.6471 79.2754 78.1738 79.8013 78.8235 79.8013Z" fill="#676666"/>
<path d="M78.8235 86.85C79.4733 86.85 80 86.324 80 85.6752C80 85.0264 79.4733 84.5004 78.8235 84.5004C78.1738 84.5004 77.6471 85.0264 77.6471 85.6752C77.6471 86.324 78.1738 86.85 78.8235 86.85Z" fill="#858282"/>
<path d="M78.8235 93.8986C79.4733 93.8986 80 93.3726 80 92.7238C80 92.075 79.4733 91.5491 78.8235 91.5491C78.1738 91.5491 77.6471 92.075 77.6471 92.7238C77.6471 93.3726 78.1738 93.8986 78.8235 93.8986Z" fill="#D6D2D2"/>
<path d="M78.8235 100.947C79.4733 100.947 80 100.421 80 99.7724C80 99.1236 79.4733 98.5977 78.8235 98.5977C78.1738 98.5977 77.6471 99.1236 77.6471 99.7724C77.6471 100.421 78.1738 100.947 78.8235 100.947Z" fill="#EEE9E9"/>
<path d="M78.8235 107.996C79.4733 107.996 80 107.47 80 106.821C80 106.172 79.4733 105.646 78.8235 105.646C78.1738 105.646 77.6471 106.172 77.6471 106.821C77.6471 107.47 78.1738 107.996 78.8235 107.996Z" fill="white"/>
</g>
<rect opacity="0.15" x="333" y="0.160034" width="106" height="106" rx="53" fill="#E4CFA9"/>
</svg>
