<svg width="16" height="16" viewBox="0 0 16 16" fill="none" xmlns="http://www.w3.org/2000/svg">
<path d="M4.1248 14.2C5.33983 14.2 6.3248 13.2151 6.3248 12C6.3248 10.785 5.33983 9.80005 4.1248 9.80005C2.90978 9.80005 1.9248 10.785 1.9248 12C1.9248 13.2151 2.90978 14.2 4.1248 14.2ZM12.0998 14.2C13.3148 14.2 14.2998 13.2151 14.2998 12C14.2998 10.785 13.3148 9.80005 12.0998 9.80005C10.8848 9.80005 9.8998 10.785 9.8998 12C9.8998 13.2151 10.8848 14.2 12.0998 14.2Z" fill="url(#paint0_linear_60291_5665)"/>
<path fill-rule="evenodd" clip-rule="evenodd" d="M0 11.2001V2.4001C0 1.95827 0.358172 1.6001 0.8 1.6001H7.00488C7.4467 1.6001 7.80488 1.95827 7.80488 2.4001V3.5751H7.8125V12.0001H7.18335C7.1861 11.9475 7.1875 11.8944 7.1875 11.8411C7.1875 10.1842 5.84435 8.84106 4.1875 8.84106C2.53065 8.84106 1.1875 10.1842 1.1875 11.8411C1.1875 11.8944 1.1889 11.9475 1.19165 12.0001H0.8C0.358172 12.0001 0 11.6419 0 11.2001ZM8.52496 12.0001H9.09168C9.08888 11.9475 9.08752 11.8944 9.08752 11.8411C9.08752 10.1842 10.4306 8.84106 12.0875 8.84106C13.7443 8.84106 15.0875 10.1842 15.0875 11.8411C15.0875 11.8944 15.0861 11.9475 15.0834 12.0001H15.2C15.6418 12.0001 16 11.6419 16 11.2001V8.11786C16 7.95962 15.953 7.80486 15.865 7.67326L13.3628 3.93047C13.2143 3.70841 12.9649 3.5751 12.6978 3.5751H8.52496V12.0001Z" fill="url(#paint1_linear_60291_5665)"/>
<defs>
<linearGradient id="paint0_linear_60291_5665" x1="2.11816" y1="9.96112" x2="10.447" y2="17.9395" gradientUnits="userSpaceOnUse">
<stop stop-color="#8EA0FF"/>
<stop offset="1" stop-color="#0011AA"/>
</linearGradient>
<linearGradient id="paint1_linear_60291_5665" x1="0.25" y1="1.98081" x2="16.4516" y2="10.4703" gradientUnits="userSpaceOnUse">
<stop stop-color="#8EA0FF"/>
<stop offset="1" stop-color="#0011AA"/>
</linearGradient>
</defs>
</svg>
