<svg width="17" height="16" viewBox="0 0 17 16" fill="none" xmlns="http://www.w3.org/2000/svg">
<g clip-path="url(#clip0_60814_6742)">
<path fill-rule="evenodd" clip-rule="evenodd" d="M16.5 8C16.5 12.4183 12.9183 16 8.5 16C4.08172 16 0.5 12.4183 0.5 8C0.5 3.58172 4.08172 0 8.5 0C12.9183 0 16.5 3.58172 16.5 8ZM12.7191 6.3524C13.0315 6.03998 13.0315 5.53345 12.7191 5.22103C12.4067 4.90861 11.9001 4.90861 11.5877 5.22103L7.48672 9.32201L5.91907 7.75437C5.60665 7.44195 5.10012 7.44195 4.7877 7.75437C4.47528 8.06679 4.47528 8.57332 4.7877 8.88574L6.92103 11.0191C7.23345 11.3315 7.73999 11.3315 8.0524 11.0191L12.7191 6.3524Z" fill="url(#paint0_linear_60814_6742)"/>
</g>
<defs>
<linearGradient id="paint0_linear_60814_6742" x1="0.603896" y1="0.103896" x2="16.3961" y2="15.8961" gradientUnits="userSpaceOnUse">
<stop stop-color="#1CD9A0"/>
<stop offset="1" stop-color="#4E9E00"/>
</linearGradient>
<clipPath id="clip0_60814_6742">
<rect width="16" height="16" fill="white" transform="translate(0.5)"/>
</clipPath>
</defs>
</svg>
