<svg width="16" height="16" viewBox="0 0 16 16" fill="none" xmlns="http://www.w3.org/2000/svg">
<g clip-path="url(#clip0_60291_5293)">
<path opacity="0.55" d="M15.804 2.74667C15.5106 2.17156 14.9133 1.77778 14.2218 1.77778H9.63064C9.15509 1.77778 8.70087 1.968 8.36664 2.30489L2.30442 8.42934C2.30442 8.43111 2.30442 8.432 2.30265 8.432C2.08576 8.65689 1.93642 8.92445 1.8582 9.20889L0.657312 7.16C0.159534 6.31289 0.443978 5.224 1.2902 4.72711L8.73109 0.377781C9.13998 0.137781 9.62887 0.071114 10.0884 0.195558L14.524 1.384C15.1951 1.56445 15.6733 2.10756 15.804 2.74667Z" fill="url(#paint0_radial_60291_5293)"/>
<path d="M9.63106 1.77783H14.2222C15.2044 1.77783 15.9999 2.57339 15.9999 3.55561V8.15294C15.9999 8.62405 15.8133 9.07739 15.4791 9.40983L9.41861 15.4703C8.72795 16.1618 7.60884 16.1654 6.91195 15.4792L2.31995 10.9458C1.62128 10.2569 1.61417 9.1325 2.30217 8.43205C2.30395 8.43205 2.30484 8.43205 2.30484 8.43028L8.36706 2.30583C8.70217 1.96805 9.1555 1.77783 9.63106 1.77783ZM11.9999 7.11117C12.7359 7.11117 13.3333 6.51383 13.3333 5.77783C13.3333 5.04183 12.7359 4.4445 11.9999 4.4445C11.2639 4.4445 10.6666 5.04183 10.6666 5.77783C10.6666 6.51383 11.2639 7.11117 11.9999 7.11117Z" fill="url(#paint1_radial_60291_5293)"/>
</g>
<defs>
<radialGradient id="paint0_radial_60291_5293" cx="0" cy="0" r="1" gradientUnits="userSpaceOnUse" gradientTransform="translate(8.10804 4.67152) rotate(90) scale(4.53737 7.69593)">
<stop stop-color="#FF531D"/>
<stop offset="1" stop-color="#FF8A35"/>
</radialGradient>
<radialGradient id="paint1_radial_60291_5293" cx="0" cy="0" r="1" gradientUnits="userSpaceOnUse" gradientTransform="translate(8.89548 8.88461) rotate(90) scale(7.10678 7.10447)">
<stop stop-color="#FF531D"/>
<stop offset="1" stop-color="#FF8A35"/>
</radialGradient>
<clipPath id="clip0_60291_5293">
<rect width="16" height="16" fill="white"/>
</clipPath>
</defs>
</svg>
