<svg width="33" height="29" viewBox="0 0 33 29" fill="none" xmlns="http://www.w3.org/2000/svg">
    <path
        d="M31.4689 0.0244141H1.37157C0.574535 0.0244141 -0.0259933 0.942875 0.126347 1.93199L4.01657 27.1743C4.13137 27.9271 4.65463 28.4703 5.26179 28.4703H27.4418C28.0467 28.4703 28.5656 27.9316 28.687 27.1831L32.7141 1.94303C32.8731 0.951706 32.2725 0.0244141 31.4689 0.0244141Z"
        fill="#377EC4" />
    <path
        d="M25.8364 9.46089L26.9359 8.85373C26.9957 8.82117 27.0624 8.80357 27.1305 8.80241C27.1985 8.80126 27.2658 8.81659 27.3267 8.84711L28.4483 9.4079C28.5183 9.44321 28.5969 9.45816 28.675 9.45106C28.7532 9.44395 28.8278 9.41507 28.8903 9.3677C28.9529 9.32033 29.0009 9.25636 29.0289 9.18307C29.0569 9.10978 29.0638 9.0301 29.0488 8.95308L28.8125 7.72111C28.7993 7.65445 28.8027 7.58557 28.8223 7.52051C28.842 7.45545 28.8773 7.39621 28.9251 7.34798L29.8083 6.45381C30.0511 6.20432 29.9054 5.78483 29.561 5.74067L28.3158 5.58612C28.2478 5.5776 28.1829 5.55263 28.1268 5.51339C28.0706 5.47416 28.0248 5.42182 27.9934 5.36092L27.4172 4.24817C27.256 3.93907 26.81 3.9479 26.6621 4.26142L26.13 5.39846C26.101 5.46003 26.0576 5.51368 26.0034 5.55481C25.9492 5.59595 25.8858 5.62336 25.8187 5.6347L24.5801 5.84002C24.5029 5.85325 24.431 5.88771 24.3723 5.93954C24.3135 5.99137 24.2704 6.05852 24.2477 6.13347C24.2251 6.20842 24.2237 6.28821 24.2438 6.36389C24.2639 6.43958 24.3047 6.50817 24.3615 6.56199L25.2778 7.41863C25.327 7.46589 25.3643 7.52416 25.3865 7.58865C25.4088 7.65314 25.4154 7.722 25.4058 7.78955L25.2182 9.03036C25.1652 9.37478 25.5317 9.62868 25.8364 9.46089Z"
        fill="#E3EAEF" />
    <g opacity="0.25">
        <path opacity="0.25"
            d="M25.3843 10.0194C25.4732 10.0192 25.5606 9.99641 25.6382 9.95321L26.9276 9.24229C26.9927 9.20667 27.0654 9.18727 27.1396 9.18573C27.2138 9.18419 27.2872 9.20056 27.3537 9.23346L28.6696 9.8936C28.7573 9.93739 28.8555 9.95577 28.9531 9.94666C29.0507 9.93755 29.1438 9.90132 29.2219 9.84206C29.3 9.7828 29.36 9.70287 29.395 9.61132C29.4301 9.51977 29.4388 9.42024 29.4203 9.32398L29.1443 7.88005C29.1301 7.8067 29.134 7.73101 29.1555 7.65948C29.177 7.58795 29.2156 7.52272 29.2679 7.46939L30.3012 6.42287C30.3697 6.35276 30.4173 6.26497 30.4387 6.16932C30.4601 6.07368 30.4544 5.97396 30.4223 5.88135C30.3902 5.78875 30.333 5.70691 30.257 5.64501C30.181 5.58311 30.0893 5.5436 29.9921 5.5309L28.5327 5.34986C28.4587 5.34059 28.388 5.31344 28.3269 5.27074C28.2657 5.22804 28.2159 5.17108 28.1817 5.10479L27.5039 3.79774C27.4587 3.71061 27.39 3.63787 27.3056 3.58777C27.2212 3.53767 27.1244 3.51221 27.0263 3.51428C26.9282 3.51635 26.8326 3.54586 26.7504 3.59947C26.6681 3.65308 26.6026 3.72865 26.5611 3.81762L25.9363 5.14895C25.9051 5.21654 25.8578 5.27545 25.7985 5.32049C25.7392 5.36553 25.6698 5.39532 25.5963 5.40726L24.1457 5.64792C24.0492 5.66403 23.9591 5.70679 23.8855 5.77136C23.812 5.83594 23.7579 5.91977 23.7295 6.01341C23.701 6.10706 23.6993 6.20678 23.7245 6.30136C23.7496 6.39594 23.8007 6.48161 23.872 6.54872L24.945 7.5555C24.9994 7.60642 25.0407 7.66977 25.0653 7.74014C25.0899 7.8105 25.0971 7.88578 25.0863 7.95953L24.8655 9.4145C24.8502 9.51147 24.8626 9.61079 24.9012 9.70102C24.9399 9.79125 25.0033 9.86872 25.0841 9.92451C25.1724 9.98548 25.277 10.0186 25.3843 10.0194ZM25.6073 9.89581C25.5322 9.93783 25.4466 9.95765 25.3606 9.95296C25.2746 9.94827 25.1917 9.91926 25.1216 9.86931C25.0505 9.821 24.9948 9.75328 24.9612 9.67421C24.9275 9.59513 24.9173 9.50805 24.9317 9.42333L25.1503 7.96836C25.1631 7.88432 25.1553 7.79844 25.1276 7.71807C25.0999 7.6377 25.0532 7.56524 24.9913 7.50692L23.9161 6.50235C23.8538 6.44353 23.809 6.3685 23.7869 6.28567C23.7648 6.20285 23.7662 6.11551 23.791 6.03344C23.8157 5.95137 23.8629 5.87782 23.9271 5.82103C23.9913 5.76425 24.0701 5.72647 24.1546 5.71195L25.6073 5.4735C25.6914 5.45912 25.7708 5.42474 25.8388 5.37325C25.9068 5.32176 25.9615 5.25467 25.9981 5.17765L26.6229 3.84632C26.6592 3.76866 26.7165 3.70269 26.7882 3.65588C26.86 3.60908 26.9435 3.58329 27.0292 3.58146C27.1149 3.57962 27.1994 3.6018 27.2731 3.64548C27.3469 3.68917 27.4069 3.75262 27.4465 3.82865L28.1221 5.1357C28.1613 5.21127 28.2185 5.27611 28.2885 5.32459C28.3585 5.37307 28.4393 5.40372 28.5239 5.41389L29.9833 5.59714C30.0686 5.60686 30.1495 5.64067 30.2163 5.69462C30.2832 5.74857 30.3333 5.82044 30.3608 5.90182C30.3894 5.98293 30.3946 6.07042 30.3758 6.15435C30.3571 6.23827 30.3152 6.31524 30.2548 6.37651L29.2216 7.42302C29.1619 7.48386 29.1177 7.55812 29.0928 7.63957C29.0678 7.72102 29.0628 7.80728 29.078 7.89109L29.3562 9.33722C29.3722 9.42123 29.3643 9.50802 29.3336 9.58781C29.3029 9.66761 29.2505 9.73725 29.1824 9.78888C29.1142 9.84051 29.033 9.87209 28.9479 9.88006C28.8627 9.88803 28.7771 9.87207 28.7005 9.83399L27.3846 9.17384C27.3081 9.13589 27.2236 9.11706 27.1382 9.11898C27.0528 9.12091 26.9692 9.14352 26.8945 9.18488L25.6073 9.89581Z"
            fill="#453438" />
    </g>
    <path
        d="M5.82483 10.357L7.37474 10.0236C7.45867 10.0054 7.54577 10.0079 7.6285 10.031C7.71122 10.0541 7.78706 10.097 7.84942 10.1561L9.00413 11.2445C9.32206 11.5448 9.84973 11.3505 9.8961 10.9134L10.0573 9.33474C10.0662 9.24922 10.0957 9.16714 10.1434 9.09559C10.1911 9.02404 10.2555 8.96518 10.331 8.92408L11.722 8.16459C12.1061 7.95263 12.0841 7.39184 11.6822 7.21301L10.2317 6.57273C10.1531 6.53737 10.0842 6.4836 10.0307 6.41596C9.97731 6.34832 9.94098 6.26881 9.9248 6.18415L9.63116 4.62762C9.54947 4.19488 9.00854 4.04475 8.7149 4.37151L7.65734 5.55271C7.59955 5.6165 7.52724 5.66546 7.44655 5.69543C7.36585 5.7254 7.27913 5.73552 7.1937 5.72492L5.62171 5.5218C5.18676 5.4666 4.87546 5.93466 5.09624 6.31441L5.89107 7.68548C5.93437 7.75967 5.95883 7.84335 5.96229 7.92919C5.96576 8.01502 5.94812 8.10039 5.91094 8.17783L5.23313 9.61072C5.04546 10.0081 5.3943 10.4497 5.82483 10.357Z"
        fill="#E3EAEF" />
    <g opacity="0.25">
        <path opacity="0.25"
            d="M9.48285 11.909C9.55963 11.9087 9.63579 11.8952 9.70805 11.8692C9.8192 11.8281 9.9166 11.7567 9.98919 11.6631C10.0618 11.5694 10.1067 11.4572 10.1187 11.3394L10.302 9.54879C10.3112 9.45684 10.3428 9.36855 10.394 9.29159C10.4452 9.21464 10.5144 9.15135 10.5956 9.10722L12.1742 8.24396C12.279 8.18753 12.3657 8.10274 12.4245 7.99932C12.4833 7.89589 12.5118 7.77799 12.5067 7.65912C12.5017 7.54025 12.4632 7.42521 12.3958 7.32716C12.3284 7.22911 12.2348 7.15202 12.1256 7.10471L10.4808 6.37612C10.3961 6.33923 10.3218 6.28207 10.2645 6.20969C10.2071 6.1373 10.1684 6.05191 10.1518 5.96105L9.81844 4.19257C9.79591 4.07621 9.74142 3.96842 9.66107 3.88129C9.58073 3.79416 9.4777 3.73113 9.36354 3.69927C9.24939 3.66741 9.12861 3.66797 9.01476 3.70089C8.9009 3.73382 8.79847 3.7978 8.71893 3.88567L7.51787 5.22584C7.45608 5.29441 7.37866 5.34708 7.29218 5.37936C7.2057 5.41165 7.11271 5.4226 7.0211 5.4113L5.23716 5.18168C5.11953 5.16653 5 5.18458 4.89208 5.23379C4.78417 5.28301 4.69217 5.36143 4.62649 5.46019C4.5608 5.55894 4.52405 5.67411 4.52038 5.79266C4.51671 5.91121 4.54627 6.02842 4.60572 6.13105L5.50873 7.68758C5.55565 7.76729 5.58222 7.85734 5.58607 7.94976C5.58992 8.04218 5.57094 8.13412 5.53081 8.21746L4.76248 9.84464C4.71146 9.95161 4.69146 10.0707 4.70476 10.1885C4.71806 10.3063 4.76411 10.418 4.8377 10.5109C4.91128 10.6038 5.00945 10.6742 5.12104 10.7141C5.23263 10.754 5.35318 10.7618 5.46899 10.7366L7.22864 10.3591C7.31908 10.3396 7.41289 10.3423 7.50208 10.3669C7.59127 10.3915 7.67318 10.4373 7.74086 10.5004L9.05011 11.7368C9.16714 11.8472 9.32193 11.9088 9.48285 11.909ZM9.187 3.73996C9.24077 3.73969 9.2943 3.74712 9.34596 3.76204C9.44879 3.78912 9.54171 3.84511 9.61371 3.92337C9.68571 4.00162 9.73377 4.09888 9.7522 4.2036L10.0856 5.97209C10.1046 6.07356 10.1482 6.16885 10.2124 6.24965C10.2767 6.33046 10.3597 6.39434 10.4543 6.43573L12.0991 7.16432C12.197 7.20646 12.2809 7.27551 12.3411 7.36345C12.4013 7.45138 12.4353 7.55459 12.4391 7.66109C12.4448 7.76744 12.42 7.8732 12.3676 7.9659C12.3152 8.05861 12.2374 8.13441 12.1433 8.18435L10.5625 9.04761C10.4722 9.09761 10.3953 9.16869 10.3384 9.2548C10.2815 9.34091 10.2463 9.4395 10.2357 9.54217L10.0525 11.3327C10.0416 11.4385 10.0013 11.5392 9.93618 11.6233C9.87105 11.7074 9.78368 11.7716 9.68395 11.8086C9.58423 11.8455 9.47613 11.8539 9.37192 11.8326C9.2677 11.8113 9.17152 11.7613 9.09427 11.6882L7.78501 10.4518C7.70984 10.3815 7.61882 10.3303 7.51966 10.3026C7.42049 10.2749 7.31612 10.2716 7.21539 10.2928L5.45574 10.6726C5.35179 10.6948 5.24369 10.6875 5.14367 10.6515C5.04365 10.6155 4.9557 10.5522 4.88977 10.4688C4.82384 10.3855 4.78256 10.2853 4.7706 10.1797C4.75864 10.074 4.77648 9.96716 4.82209 9.87114L5.59042 8.24396C5.63505 8.15125 5.65618 8.04898 5.65194 7.94618C5.64771 7.84337 5.61824 7.74319 5.56613 7.65446L4.66312 6.09794C4.60941 6.00599 4.58254 5.90084 4.58557 5.79439C4.58859 5.68795 4.62139 5.58449 4.68025 5.49575C4.7391 5.40701 4.82165 5.33654 4.91853 5.29234C5.01541 5.24815 5.12274 5.23199 5.22833 5.24571L7.01227 5.47532C7.1147 5.48869 7.21885 5.47699 7.31576 5.44123C7.41268 5.40546 7.49946 5.3467 7.56865 5.26999L8.76971 3.92983C8.82179 3.87035 8.88594 3.82266 8.95789 3.78992C9.02984 3.75718 9.10794 3.74015 9.187 3.73996Z"
            fill="#453438" />
    </g>
    <path
        d="M19.0931 27.4544L20.155 26.3108C20.2128 26.2488 20.2848 26.2019 20.3649 26.1742C20.4449 26.1465 20.5306 26.1388 20.6143 26.1518L22.1575 26.3814C22.5859 26.4432 22.9016 25.9884 22.6896 25.6087L21.9323 24.242C21.891 24.1681 21.8684 24.0852 21.8665 24.0005C21.8645 23.9159 21.8834 23.832 21.9213 23.7563L22.6146 22.3565C22.8067 21.9679 22.4711 21.5264 22.0449 21.6103L20.5127 21.9083C20.4299 21.9244 20.3445 21.9201 20.2637 21.8959C20.183 21.8717 20.1093 21.8282 20.0491 21.7692L18.9319 20.6741C18.8625 20.6057 18.7753 20.5582 18.6802 20.5368C18.5851 20.5155 18.486 20.5212 18.394 20.5534C18.302 20.5856 18.2209 20.643 18.1599 20.7189C18.0988 20.7949 18.0603 20.8865 18.0487 20.9832L17.8611 22.5354C17.851 22.6194 17.8206 22.6997 17.7725 22.7693C17.7244 22.8389 17.6601 22.8958 17.5851 22.935L16.203 23.6592C15.8188 23.8601 15.8321 24.4142 16.2251 24.5975L17.6403 25.2576C17.717 25.2932 17.7839 25.347 17.8351 25.4144C17.8863 25.4817 17.9202 25.5605 17.9339 25.644L18.1945 27.1851C18.2673 27.6134 18.7972 27.7724 19.0931 27.4544Z"
        fill="#E3EAEF" />
    <g opacity="0.25">
        <path opacity="0.25"
            d="M18.6058 28.2386C18.6934 28.2383 18.78 28.2199 18.8601 28.1846C18.9403 28.1493 19.0123 28.0977 19.0716 28.0333L20.3102 26.7019C20.3732 26.6335 20.4521 26.5816 20.5399 26.5508C20.6276 26.52 20.7216 26.5112 20.8136 26.5253L22.613 26.7925C22.7314 26.8095 22.8521 26.7931 22.9617 26.7452C23.0713 26.6974 23.1653 26.6198 23.2333 26.5214C23.3012 26.423 23.3403 26.3075 23.3461 26.1881C23.352 26.0686 23.3244 25.9499 23.2665 25.8453L22.3834 24.2557C22.3378 24.174 22.3128 24.0825 22.3105 23.989C22.3082 23.8956 22.3286 23.8029 22.3701 23.7191L23.1782 22.0898C23.2316 21.9823 23.2537 21.8619 23.242 21.7425C23.2303 21.623 23.1852 21.5092 23.112 21.4142C23.0401 21.3186 22.9427 21.2452 22.831 21.2026C22.7193 21.16 22.5978 21.1499 22.4805 21.1735L20.6966 21.5201C20.6053 21.5386 20.5108 21.5343 20.4215 21.5078C20.3322 21.4812 20.2508 21.4331 20.1844 21.3678L18.8862 20.0917C18.8004 20.0081 18.6931 19.9501 18.5761 19.9243C18.4592 19.8985 18.3374 19.9058 18.2245 19.9456C18.1115 19.9853 18.0119 20.0558 17.9369 20.1491C17.8619 20.2424 17.8144 20.3548 17.7999 20.4736L17.5813 22.2796C17.5704 22.3722 17.5368 22.4607 17.4837 22.5373C17.4306 22.6139 17.3595 22.6763 17.2766 22.719L15.6671 23.5624C15.5613 23.6181 15.4731 23.7022 15.4125 23.8052C15.3519 23.9083 15.3213 24.0262 15.324 24.1457C15.3268 24.2653 15.3628 24.3817 15.4281 24.4818C15.4934 24.582 15.5854 24.6619 15.6936 24.7127L17.3429 25.481C17.4275 25.5203 17.5013 25.5796 17.5579 25.6539C17.6144 25.7281 17.652 25.8151 17.6674 25.9071L17.9699 27.7021C17.9896 27.8205 18.0423 27.931 18.122 28.0209C18.2016 28.1107 18.305 28.1762 18.4203 28.2099C18.4802 28.2291 18.5428 28.2388 18.6058 28.2386ZM20.7297 26.4525C20.6417 26.4523 20.5546 26.4705 20.474 26.5058C20.3935 26.5412 20.3211 26.5929 20.2616 26.6578L19.023 27.9891C18.9514 28.0687 18.8583 28.126 18.755 28.1542C18.6516 28.1824 18.5423 28.1803 18.4402 28.1481C18.3368 28.1173 18.2441 28.0582 18.1727 27.9774C18.1013 27.8966 18.054 27.7974 18.0361 27.6911L17.7315 25.8961C17.7142 25.7935 17.6722 25.6967 17.6091 25.614C17.546 25.5312 17.4637 25.4652 17.3694 25.4214L15.7223 24.6531C15.6246 24.6077 15.5416 24.5359 15.4827 24.4457C15.4238 24.3556 15.3913 24.2507 15.3889 24.1431C15.3855 24.0355 15.4128 23.9292 15.4675 23.8366C15.5222 23.7439 15.6022 23.6687 15.698 23.6198L17.3075 22.7786C17.3998 22.7301 17.4789 22.66 17.5381 22.5743C17.5973 22.4885 17.6349 22.3897 17.6476 22.2863L17.8661 20.4802C17.8789 20.3735 17.9213 20.2726 17.9886 20.1888C18.0559 20.105 18.1454 20.0418 18.2469 20.0064C18.3483 19.971 18.4577 19.9647 18.5625 19.9884C18.6673 20.0121 18.7634 20.0647 18.8398 20.1402L20.138 21.4142C20.2123 21.487 20.3031 21.5407 20.4027 21.5707C20.5023 21.6007 20.6077 21.6061 20.7098 21.5864L22.4916 21.2375C22.5969 21.2161 22.7062 21.2251 22.8066 21.2634C22.9071 21.3017 22.9946 21.3678 23.059 21.4539C23.1247 21.5394 23.1652 21.6416 23.1757 21.7489C23.1863 21.8563 23.1665 21.9644 23.1186 22.0611L22.3105 23.6904C22.2647 23.7836 22.2421 23.8864 22.2444 23.9901C22.2467 24.0939 22.2739 24.1955 22.3238 24.2866L23.2069 25.8784C23.2599 25.972 23.2854 26.0787 23.2803 26.1861C23.2752 26.2936 23.2398 26.3974 23.1782 26.4856C23.1183 26.5748 23.034 26.6449 22.9353 26.6876C22.8367 26.7302 22.7279 26.7436 22.6218 26.7262L20.8246 26.4591C20.7932 26.4547 20.7615 26.4525 20.7297 26.4525Z"
            fill="#453438" />
    </g>
    <path
        d="M11.3233 18.5194L11.5705 17.2874C11.5841 17.2207 11.6137 17.1583 11.6568 17.1056C11.6999 17.053 11.7551 17.0115 11.8178 16.985L12.9703 16.4904C13.0421 16.4593 13.1038 16.4088 13.1486 16.3446C13.1934 16.2804 13.2194 16.205 13.2237 16.1269C13.2281 16.0488 13.2106 15.971 13.1732 15.9022C13.1359 15.8334 13.0802 15.7764 13.0123 15.7375L11.9172 15.1237C11.8576 15.0904 11.8072 15.043 11.7702 14.9856C11.7333 14.9283 11.711 14.8628 11.7052 14.7948L11.5904 13.5451C11.5835 13.4671 11.5549 13.3925 11.5078 13.3299C11.4607 13.2673 11.397 13.2191 11.3239 13.1908C11.2508 13.1626 11.1712 13.1553 11.0943 13.17C11.0173 13.1846 10.9459 13.2205 10.8883 13.2736L9.96543 14.1236C9.91568 14.1702 9.85521 14.2039 9.78937 14.2216C9.72352 14.2393 9.65432 14.2405 9.58789 14.2252L8.36254 13.947C8.28605 13.9294 8.20616 13.9336 8.13196 13.9591C8.05775 13.9847 7.9922 14.0305 7.94275 14.0915C7.8933 14.1524 7.86195 14.226 7.85224 14.3039C7.84254 14.3818 7.85487 14.4608 7.88785 14.532L8.41111 15.6735C8.43962 15.7354 8.4527 15.8033 8.44924 15.8713C8.44578 15.9394 8.42588 16.0056 8.39124 16.0643L7.74875 17.1417C7.56992 17.4398 7.81278 17.8151 8.15721 17.7732L9.40464 17.6274C9.47225 17.6199 9.5407 17.6287 9.60414 17.6534C9.66757 17.678 9.72411 17.7175 9.76893 17.7687L10.5969 18.7137C10.6485 18.7724 10.7155 18.8156 10.7903 18.8383C10.8652 18.8609 10.9448 18.8622 11.0204 18.842C11.0959 18.8218 11.1643 18.7809 11.2178 18.7239C11.2713 18.6669 11.3079 18.5961 11.3233 18.5194Z"
        fill="#E3EAEF" />
    <g opacity="0.25">
        <path opacity="0.25"
            d="M10.9843 19.3388C11.0298 19.3394 11.0751 19.3335 11.1189 19.3211C11.2128 19.2966 11.2979 19.2462 11.3643 19.1754C11.4307 19.1047 11.4758 19.0167 11.4943 18.9215L11.7791 17.4974C11.7943 17.4253 11.8264 17.3578 11.8729 17.3006C11.9193 17.2434 11.9788 17.1981 12.0462 17.1684L13.382 16.5966C13.471 16.5584 13.5475 16.496 13.6029 16.4165C13.6583 16.3371 13.6903 16.2437 13.6953 16.147C13.7004 16.0502 13.6783 15.954 13.6315 15.8692C13.5847 15.7844 13.5151 15.7144 13.4306 15.6671L12.1655 14.954C12.1014 14.9181 12.047 14.8672 12.007 14.8057C11.967 14.7442 11.9426 14.6738 11.9358 14.6007L11.8034 13.1546C11.795 13.0578 11.7596 12.9653 11.7012 12.8876C11.6429 12.8099 11.5639 12.7502 11.4732 12.7152C11.3826 12.6802 11.2839 12.6714 11.1885 12.6898C11.0931 12.7081 11.0047 12.7529 10.9335 12.819L9.86489 13.8037C9.81118 13.8536 9.74606 13.8895 9.67524 13.9084C9.60441 13.9272 9.53004 13.9284 9.45864 13.9119L8.04121 13.5895C7.94653 13.5677 7.84762 13.5728 7.75573 13.6044C7.66384 13.636 7.58267 13.6928 7.52147 13.7683C7.46026 13.8437 7.42148 13.9349 7.40954 14.0313C7.3976 14.1277 7.41297 14.2256 7.45392 14.3137L8.06108 15.634C8.09162 15.701 8.10538 15.7744 8.10115 15.8478C8.09692 15.9213 8.07482 15.9927 8.03679 16.0557L7.29275 17.3031C7.24376 17.3866 7.21897 17.482 7.22116 17.5787C7.22335 17.6755 7.25243 17.7697 7.30515 17.8508C7.35786 17.932 7.43213 17.9968 7.51963 18.0381C7.60713 18.0794 7.70441 18.0956 7.80055 18.0847L9.24448 17.9169C9.31744 17.9085 9.39133 17.918 9.4598 17.9445C9.52827 17.9711 9.58925 18.0139 9.63748 18.0692L10.5935 19.1621C10.6423 19.2177 10.7024 19.2622 10.7698 19.2927C10.8372 19.3232 10.9103 19.3389 10.9843 19.3388ZM11.2823 12.7461C11.3396 12.7468 11.3964 12.7572 11.4501 12.777C11.5293 12.8069 11.5983 12.8587 11.6491 12.9263C11.6999 12.994 11.7304 13.0747 11.7371 13.159L11.8696 14.6073C11.8767 14.6911 11.9044 14.7719 11.9502 14.8424C11.9961 14.9128 12.0586 14.9709 12.1323 15.0114L13.3996 15.7245C13.4731 15.7663 13.5334 15.8278 13.5738 15.9019C13.6143 15.9761 13.6333 16.06 13.6287 16.1444C13.6241 16.2288 13.5961 16.3102 13.5479 16.3795C13.4996 16.4489 13.433 16.5034 13.3555 16.537L12.0197 17.1088C11.9422 17.1418 11.8739 17.1932 11.8208 17.2587C11.7677 17.3241 11.7314 17.4015 11.7151 17.4842L11.4302 18.9082C11.4132 18.9909 11.3735 19.0673 11.3155 19.1287C11.2576 19.1901 11.1836 19.2341 11.102 19.2559C11.0205 19.2777 10.9344 19.2763 10.8536 19.2519C10.7727 19.2276 10.7002 19.1812 10.6443 19.118L9.68605 18.0251C9.63075 17.9617 9.56085 17.9127 9.48239 17.8823C9.40392 17.8519 9.31924 17.841 9.23565 17.8507L7.79172 18.0185C7.70768 18.0284 7.62253 18.0147 7.54593 17.9787C7.46932 17.9427 7.40434 17.886 7.35835 17.8149C7.31236 17.7439 7.28722 17.6614 7.28577 17.5768C7.28432 17.4921 7.30663 17.4088 7.35015 17.3362L8.0942 16.0888C8.13742 16.0164 8.16241 15.9345 8.16703 15.8503C8.17164 15.7661 8.15574 15.682 8.12069 15.6053L7.51354 14.285C7.4779 14.2081 7.46455 14.1228 7.475 14.0388C7.48545 13.9547 7.51929 13.8753 7.57265 13.8095C7.62602 13.7437 7.69677 13.6942 7.77688 13.6666C7.85698 13.6391 7.9432 13.6345 8.02575 13.6536L9.44319 13.9759C9.5254 13.9945 9.61089 13.993 9.69238 13.9715C9.77387 13.9499 9.84896 13.909 9.91125 13.8523L10.9798 12.8676C11.0616 12.7902 11.1697 12.7468 11.2823 12.7461Z"
            fill="#453438" />
    </g>
    <path
        d="M8.14677 26.099L8.29028 25.377C8.29838 25.3377 8.31585 25.3009 8.34122 25.2697C8.36659 25.2386 8.3991 25.214 8.43599 25.1982L9.1138 24.9067C9.15591 24.8885 9.19211 24.8588 9.21834 24.8212C9.24457 24.7835 9.2598 24.7393 9.26232 24.6934C9.26484 24.6476 9.25456 24.602 9.23261 24.5617C9.21067 24.5213 9.17794 24.4879 9.13809 24.4652L8.49561 24.1031C8.46016 24.0842 8.43004 24.0567 8.40804 24.0232C8.38604 23.9896 8.37287 23.951 8.36976 23.911L8.30352 23.1758C8.29913 23.13 8.28208 23.0864 8.2543 23.0499C8.22652 23.0133 8.1891 22.9852 8.14623 22.9687C8.10336 22.9522 8.05674 22.9479 8.0116 22.9564C7.96646 22.9649 7.92458 22.9858 7.89066 23.0168L7.34753 23.518C7.31791 23.5451 7.28216 23.5648 7.24334 23.5751C7.20451 23.5855 7.16376 23.5864 7.12454 23.5776L6.40699 23.4142C6.36219 23.4041 6.31544 23.4066 6.272 23.4215C6.22855 23.4364 6.19011 23.4631 6.161 23.4986C6.13188 23.5342 6.11324 23.5771 6.10717 23.6227C6.10109 23.6682 6.10781 23.7145 6.12659 23.7564L6.43569 24.4276C6.45206 24.4641 6.45941 24.5041 6.4571 24.544C6.4548 24.584 6.44291 24.6228 6.42244 24.6572L6.0449 25.2909C6.02167 25.3305 6.00992 25.3757 6.01095 25.4216C6.01197 25.4675 6.02575 25.5121 6.05072 25.5506C6.0757 25.5891 6.11089 25.6199 6.15236 25.6395C6.19383 25.6592 6.23995 25.6669 6.28556 25.6618L7.01856 25.5757C7.05838 25.5713 7.09868 25.5766 7.13599 25.5912C7.17329 25.6058 7.20649 25.6293 7.23272 25.6596L7.71844 26.2138C7.74888 26.2484 7.78841 26.2739 7.83256 26.2873C7.87671 26.3006 7.92372 26.3014 7.96828 26.2895C8.01284 26.2775 8.05317 26.2533 8.08471 26.2197C8.11625 26.186 8.13775 26.1442 8.14677 26.099Z"
        fill="#E3EAEF" />
    <g opacity="0.25">
        <path opacity="0.25"
            d="M7.9975 26.7437C8.02725 26.7432 8.05687 26.7395 8.08581 26.7326C8.14724 26.7163 8.20282 26.683 8.24617 26.6365C8.28952 26.5901 8.31888 26.5323 8.33088 26.4699L8.51192 25.5691C8.52057 25.5254 8.53978 25.4844 8.56787 25.4498C8.59596 25.4151 8.63208 25.3879 8.6731 25.3704L9.5187 25.0083C9.57734 24.9834 9.62774 24.9424 9.66408 24.89C9.70041 24.8377 9.72119 24.7761 9.72403 24.7124C9.72851 24.6489 9.71467 24.5853 9.68415 24.5294C9.65362 24.4734 9.6077 24.4274 9.55182 24.3967L8.75037 23.9463C8.71153 23.9246 8.67856 23.8938 8.65432 23.8565C8.63009 23.8191 8.61531 23.7765 8.61128 23.7322L8.52738 22.8159C8.52224 22.7525 8.49917 22.6918 8.46086 22.641C8.42255 22.5902 8.37058 22.5513 8.31101 22.5289C8.25162 22.5061 8.18703 22.5005 8.12459 22.5126C8.06214 22.5247 8.00434 22.554 7.95775 22.5973L7.28216 23.2199C7.24945 23.2503 7.20983 23.2722 7.16673 23.2837C7.12364 23.2953 7.07837 23.2961 7.03487 23.2862L6.13849 23.0809C6.07634 23.0666 6.01143 23.0703 5.95126 23.0913C5.8911 23.1124 5.83813 23.1501 5.79848 23.2001C5.7577 23.2488 5.73167 23.3081 5.72346 23.371C5.71524 23.434 5.72519 23.498 5.75212 23.5555L6.13628 24.3923C6.15497 24.4329 6.16352 24.4774 6.16122 24.522C6.15891 24.5666 6.14581 24.61 6.12304 24.6484L5.65056 25.4366C5.61895 25.4916 5.60311 25.5541 5.60479 25.6175C5.60646 25.6809 5.62559 25.7425 5.66006 25.7957C5.69452 25.8489 5.743 25.8915 5.80015 25.9189C5.85729 25.9464 5.92089 25.9575 5.98394 25.9511L6.89799 25.8429C6.94224 25.8383 6.98694 25.8443 7.02841 25.8604C7.06987 25.8766 7.1069 25.9023 7.13644 25.9356L7.74138 26.6266C7.77324 26.6633 7.81258 26.6927 7.85676 26.7129C7.90094 26.7331 7.94893 26.7436 7.9975 26.7437ZM8.18737 22.5731C8.22132 22.5725 8.25506 22.5785 8.28672 22.5907C8.33474 22.6089 8.37661 22.6403 8.40748 22.6814C8.43836 22.7224 8.45696 22.7714 8.46114 22.8225L8.54504 23.7388C8.55052 23.7935 8.56901 23.8461 8.59897 23.8922C8.62893 23.9383 8.66949 23.9765 8.71725 24.0037L9.5187 24.4541C9.56365 24.4788 9.60062 24.5158 9.62526 24.5608C9.6499 24.6058 9.66119 24.6569 9.65779 24.708C9.65639 24.7596 9.63998 24.8096 9.61056 24.852C9.58115 24.8943 9.54002 24.9272 9.49221 24.9465L8.6466 25.3086C8.59609 25.3308 8.55167 25.3649 8.51709 25.408C8.4825 25.451 8.45877 25.5017 8.44789 25.5558L8.26685 26.4566C8.2572 26.5072 8.2334 26.5539 8.19823 26.5914C8.16305 26.6289 8.11794 26.6557 8.06815 26.6686C8.01873 26.6822 7.96644 26.6814 7.9175 26.6661C7.86857 26.6508 7.82506 26.6218 7.79217 26.5825L7.18501 25.8914C7.1484 25.8501 7.10245 25.8182 7.05099 25.7982C6.99954 25.7782 6.94405 25.7708 6.88916 25.7766L5.97732 25.8848C5.92629 25.8915 5.87443 25.8833 5.82786 25.8614C5.7813 25.8395 5.74199 25.8047 5.71459 25.7612C5.68556 25.7188 5.66949 25.6689 5.66831 25.6175C5.66713 25.5662 5.68091 25.5156 5.70796 25.4719L6.17823 24.6815C6.20709 24.6341 6.22379 24.5802 6.22687 24.5248C6.22996 24.4693 6.21931 24.414 6.19589 24.3636L5.81173 23.529C5.79093 23.4824 5.78348 23.4309 5.79021 23.3803C5.79694 23.3296 5.81758 23.2819 5.84985 23.2423C5.88212 23.2027 5.92474 23.1728 5.97297 23.156C6.0212 23.1392 6.07315 23.1361 6.12304 23.1471L7.01942 23.3502C7.07338 23.3622 7.12943 23.3611 7.18284 23.3468C7.23626 23.3326 7.28547 23.3058 7.32631 23.2685L8.00191 22.6459C8.05215 22.5988 8.11851 22.5727 8.18737 22.5731Z"
            fill="#453438" />
    </g>
    <path
        d="M19.3052 11.5339L19.4487 10.8098C19.4568 10.7704 19.4743 10.7336 19.4997 10.7025C19.525 10.6714 19.5576 10.6468 19.5944 10.6309L20.2722 10.3417C20.3144 10.3234 20.3506 10.2938 20.3768 10.2561C20.403 10.2185 20.4182 10.1743 20.4208 10.1284C20.4233 10.0826 20.413 10.037 20.3911 9.99664C20.3691 9.95632 20.3364 9.92291 20.2965 9.90014L19.6518 9.53805C19.6172 9.51848 19.5878 9.49076 19.5663 9.45729C19.5447 9.42383 19.5317 9.38562 19.5282 9.34597L19.462 8.61075C19.4579 8.5646 19.4409 8.52053 19.413 8.48355C19.3851 8.44657 19.3474 8.41818 19.3041 8.40161C19.2608 8.38504 19.2138 8.38096 19.1683 8.38983C19.1228 8.3987 19.0808 8.42017 19.0469 8.45179L18.506 8.95076C18.4764 8.97792 18.4406 8.99753 18.4018 9.00791C18.363 9.01829 18.3222 9.01913 18.283 9.01038L17.5654 8.847C17.5204 8.83655 17.4733 8.83895 17.4295 8.85394C17.3857 8.86893 17.347 8.89589 17.3178 8.93177C17.2886 8.96765 17.2701 9.011 17.2643 9.0569C17.2585 9.1028 17.2657 9.1494 17.285 9.19142L17.5941 9.8604C17.6107 9.89688 17.6181 9.93684 17.6158 9.97684C17.6135 10.0168 17.6015 10.0557 17.5809 10.09L17.2033 10.7237C17.1792 10.7631 17.1667 10.8086 17.1673 10.8548C17.168 10.901 17.1816 10.9462 17.2068 10.9849C17.232 11.0237 17.2676 11.0546 17.3096 11.074C17.3515 11.0934 17.3981 11.1005 17.444 11.0946L18.177 11.0107C18.2167 11.0054 18.257 11.0101 18.2944 11.0244C18.3318 11.0387 18.3651 11.062 18.3912 11.0924L18.8769 11.6465C18.9072 11.6812 18.9465 11.7067 18.9905 11.7202C19.0345 11.7337 19.0814 11.7347 19.1259 11.723C19.1705 11.7113 19.2108 11.6874 19.2425 11.654C19.2742 11.6206 19.2959 11.579 19.3052 11.5339Z"
        fill="#E3EAEF" />
    <g opacity="0.25">
        <path opacity="0.25"
            d="M19.1337 12.345C19.1658 12.3448 19.1977 12.3404 19.2286 12.3318C19.2933 12.3147 19.3518 12.2798 19.3975 12.231C19.4432 12.1822 19.4742 12.1214 19.4869 12.0558L19.679 11.102C19.6876 11.0554 19.7077 11.0116 19.7373 10.9746C19.767 10.9377 19.8054 10.9086 19.849 10.8901L20.7454 10.5081C20.8071 10.4815 20.8601 10.4382 20.8985 10.3831C20.9368 10.3279 20.959 10.2631 20.9624 10.1961C20.9659 10.129 20.9505 10.0623 20.918 10.0035C20.8855 9.94469 20.8372 9.89617 20.7785 9.86341L19.9307 9.38872C19.8895 9.36501 19.8546 9.3318 19.8289 9.29186C19.8032 9.25192 19.7874 9.2064 19.7828 9.15911L19.6945 8.18986C19.6881 8.12334 19.6633 8.05991 19.623 8.00666C19.5826 7.95342 19.5282 7.91247 19.4658 7.88841C19.4035 7.86434 19.3357 7.85811 19.27 7.87041C19.2043 7.8827 19.1433 7.91305 19.0939 7.95804L18.3786 8.61819C18.3435 8.64981 18.3013 8.6727 18.2557 8.68498C18.21 8.69725 18.1621 8.69857 18.1159 8.68884L17.1665 8.47247C17.1013 8.45799 17.0334 8.46192 16.9703 8.48384C16.9072 8.50575 16.8515 8.54479 16.8094 8.59657C16.7672 8.64834 16.7403 8.71083 16.7316 8.77703C16.7229 8.84324 16.7329 8.91055 16.7602 8.97144L17.1665 9.85679C17.1864 9.89985 17.1954 9.94714 17.1927 9.9945C17.19 10.0419 17.1757 10.0878 17.151 10.1284L16.6543 10.9651C16.6195 11.0222 16.6017 11.088 16.6029 11.1549C16.6041 11.2217 16.6242 11.2868 16.6609 11.3427C16.6964 11.3996 16.7476 11.4451 16.8083 11.4737C16.869 11.5023 16.9366 11.5127 17.0031 11.5038L17.9701 11.3912C18.0173 11.386 18.0651 11.3924 18.1093 11.4097C18.1535 11.427 18.1929 11.4547 18.224 11.4906L18.8643 12.2214C18.8979 12.2599 18.9392 12.2909 18.9857 12.3122C19.0321 12.3335 19.0826 12.3447 19.1337 12.345ZM19.4229 12.0426C19.4122 12.0961 19.3867 12.1457 19.3493 12.1856C19.3119 12.2255 19.2642 12.2541 19.2114 12.2683C19.1586 12.2826 19.103 12.2818 19.0506 12.2661C18.9983 12.2504 18.9513 12.2204 18.9151 12.1794L18.2748 11.4464C18.2361 11.4026 18.1874 11.3688 18.1328 11.3476C18.0783 11.3265 18.0195 11.3188 17.9613 11.325L16.9965 11.4398C16.9421 11.4463 16.8869 11.4374 16.8373 11.4141C16.7877 11.3909 16.7456 11.3542 16.7157 11.3082C16.6859 11.2623 16.6695 11.2089 16.6683 11.1541C16.6672 11.0993 16.6815 11.0454 16.7095 10.9982L17.2084 10.1615C17.2388 10.1117 17.2564 10.0552 17.2594 9.99701C17.2625 9.93881 17.2511 9.88075 17.2261 9.82808L16.8199 8.94495C16.7972 8.89524 16.7888 8.84018 16.7957 8.78598C16.8026 8.73178 16.8245 8.68058 16.8589 8.63814C16.8933 8.5957 16.9389 8.5637 16.9905 8.54574C17.0421 8.52779 17.0977 8.52458 17.151 8.5365L18.1004 8.75286C18.1571 8.76579 18.2161 8.7647 18.2722 8.7497C18.3284 8.7347 18.3801 8.70623 18.4228 8.66676L19.1381 8.00661C19.1785 7.96984 19.2283 7.94505 19.2819 7.93503C19.3356 7.925 19.391 7.93014 19.4419 7.94986C19.4928 7.96959 19.5372 8.00311 19.5702 8.04668C19.6031 8.09025 19.6232 8.14212 19.6282 8.19649L19.7165 9.16573C19.7224 9.22346 19.7418 9.27899 19.7733 9.32773C19.8048 9.37648 19.8474 9.41706 19.8976 9.44613L20.7454 9.92302C20.7932 9.94941 20.8327 9.9887 20.8592 10.0364C20.8858 10.0841 20.8984 10.1384 20.8957 10.1929C20.8929 10.2475 20.8749 10.3002 20.8436 10.345C20.8124 10.3897 20.7692 10.4249 20.7189 10.4463L19.8247 10.8304C19.7712 10.8532 19.7239 10.8885 19.687 10.9335C19.65 10.9785 19.6246 11.0318 19.6128 11.0888L19.4229 12.0426Z"
            fill="#453438" />
    </g>
    <path
        d="M27.2997 18.0691L27.3593 17.1308C27.3625 17.08 27.378 17.0307 27.4046 16.9872C27.4311 16.9437 27.4679 16.9074 27.5116 16.8813L28.3197 16.4C28.3699 16.3699 28.4108 16.3263 28.4375 16.2742C28.4643 16.2221 28.4759 16.1636 28.4711 16.1052C28.4663 16.0468 28.4452 15.9909 28.4102 15.9439C28.3753 15.8969 28.3278 15.8606 28.2733 15.8392L27.4012 15.4904C27.3543 15.4714 27.3125 15.4414 27.2795 15.403C27.2465 15.3646 27.2231 15.3189 27.2113 15.2696L27.0038 14.3533C26.9909 14.2962 26.9621 14.2438 26.9209 14.2021C26.8797 14.1605 26.8276 14.1312 26.7706 14.1176C26.7136 14.1041 26.6539 14.1068 26.5984 14.1254C26.5428 14.144 26.4936 14.1779 26.4563 14.2231L25.8557 14.945C25.823 14.9843 25.7811 15.0149 25.7338 15.0342C25.6864 15.0535 25.635 15.0607 25.5842 15.0554L24.6502 14.9715C24.5917 14.966 24.5328 14.977 24.4802 15.0033C24.4276 15.0296 24.3835 15.0702 24.3529 15.1204C24.3223 15.1705 24.3064 15.2283 24.307 15.2871C24.3077 15.3459 24.3249 15.4033 24.3566 15.4528L24.8578 16.2455C24.885 16.2885 24.9013 16.3376 24.9052 16.3884C24.909 16.4392 24.9003 16.4902 24.8799 16.5369L24.5112 17.4002C24.4877 17.4541 24.4799 17.5135 24.4887 17.5716C24.4974 17.6297 24.5223 17.6842 24.5605 17.7289C24.5987 17.7736 24.6487 17.8066 24.7048 17.8242C24.7609 17.8418 24.8208 17.8433 24.8777 17.8285L25.7873 17.5989C25.8366 17.5857 25.8883 17.5849 25.938 17.5965C25.9876 17.608 26.0337 17.6316 26.0721 17.6651L26.7786 18.2833C26.8225 18.3223 26.8765 18.3482 26.9343 18.358C26.9922 18.3678 27.0517 18.3612 27.106 18.3389C27.1603 18.3165 27.2072 18.2794 27.2415 18.2317C27.2757 18.1841 27.2959 18.1277 27.2997 18.0691Z"
        fill="#E3EAEF" />
    <g opacity="0.25">
        <path opacity="0.25"
            d="M27.0838 18.7537C27.1361 18.7533 27.1878 18.7428 27.2362 18.7228C27.3057 18.6946 27.3658 18.6473 27.4096 18.5863C27.4534 18.5254 27.479 18.4533 27.4835 18.3784L27.5541 17.2833C27.5579 17.2292 27.5748 17.1769 27.6032 17.1307C27.6317 17.0846 27.6709 17.046 27.7175 17.0184L28.658 16.4576C28.7224 16.4196 28.7748 16.3643 28.8093 16.2981C28.8438 16.2318 28.8591 16.1572 28.8533 16.0827C28.8476 16.0082 28.821 15.9368 28.7768 15.8766C28.7325 15.8165 28.6722 15.7699 28.6028 15.7422L27.5828 15.336C27.5329 15.3155 27.4886 15.2834 27.4536 15.2423C27.4187 15.2012 27.3941 15.1523 27.3819 15.0997L27.1368 14.0289C27.1209 13.9561 27.0846 13.8892 27.0323 13.8361C26.9799 13.7829 26.9136 13.7457 26.841 13.7287C26.7683 13.7112 26.6922 13.7143 26.6212 13.7377C26.5502 13.7611 26.4872 13.8039 26.4392 13.8611L25.7393 14.7067C25.7043 14.748 25.6601 14.7803 25.6102 14.8011C25.5603 14.8218 25.5061 14.8303 25.4522 14.826L24.3594 14.7266C24.285 14.7196 24.2101 14.7335 24.1432 14.7669C24.0764 14.8003 24.0202 14.8517 23.9811 14.9154C23.942 14.9791 23.9216 15.0525 23.9221 15.1272C23.9226 15.202 23.9441 15.275 23.984 15.3382L24.5691 16.2655C24.5984 16.311 24.616 16.363 24.6202 16.417C24.6245 16.4709 24.6153 16.5251 24.5934 16.5746L24.1629 17.5836C24.1325 17.6519 24.1223 17.7276 24.1337 17.8016C24.145 17.8756 24.1774 17.9447 24.2269 18.0008C24.2751 18.0577 24.3384 18.0999 24.4094 18.1226C24.4805 18.1452 24.5565 18.1474 24.6287 18.1289L25.6929 17.8595C25.7455 17.8464 25.8004 17.8461 25.8531 17.8588C25.9058 17.8715 25.9546 17.8967 25.9954 17.9324L26.8189 18.6544C26.8921 18.7187 26.9864 18.754 27.0838 18.7537ZM27.4172 18.374C27.4135 18.4364 27.3923 18.4966 27.356 18.5476C27.3198 18.5986 27.2699 18.6383 27.212 18.6623C27.1542 18.6862 27.0908 18.6934 27.0291 18.6831C26.9674 18.6727 26.9099 18.6451 26.8631 18.6036L26.0373 17.8816C25.9885 17.839 25.93 17.8088 25.8669 17.7938C25.8038 17.7788 25.738 17.7794 25.6752 17.7955L24.6133 18.0649C24.5528 18.0808 24.489 18.0794 24.4293 18.0608C24.3696 18.0422 24.3163 18.0072 24.2756 17.9597C24.2348 17.9123 24.2082 17.8543 24.1988 17.7925C24.1894 17.7307 24.1976 17.6675 24.2225 17.6101L24.6552 16.6011C24.6812 16.5416 24.6922 16.4767 24.6872 16.412C24.6822 16.3473 24.6614 16.2849 24.6265 16.2302L24.0392 15.3029C24.0062 15.25 23.9885 15.1889 23.9882 15.1266C23.9879 15.0642 24.005 15.003 24.0376 14.9498C24.0701 14.8966 24.1169 14.8535 24.1725 14.8254C24.2282 14.7973 24.2906 14.7853 24.3527 14.7906L25.4456 14.89C25.5102 14.8964 25.5754 14.8868 25.6354 14.8622C25.6954 14.8375 25.7485 14.7986 25.79 14.7487L26.4899 13.9053C26.5296 13.857 26.582 13.8209 26.6412 13.801C26.7005 13.7811 26.7641 13.7783 26.8248 13.7928C26.8856 13.8073 26.941 13.8385 26.9849 13.883C27.0287 13.9275 27.0592 13.9834 27.0728 14.0444L27.3157 15.113C27.3307 15.1763 27.3605 15.2351 27.4028 15.2847C27.445 15.3342 27.4984 15.373 27.5585 15.3978L28.5786 15.804C28.6363 15.8272 28.6864 15.866 28.7233 15.9161C28.7601 15.9662 28.7822 16.0257 28.787 16.0877C28.7918 16.1497 28.7792 16.2118 28.7506 16.2671C28.7219 16.3223 28.6784 16.3684 28.6249 16.4002L27.6822 16.9632C27.6267 16.9962 27.58 17.0421 27.5462 17.0971C27.5124 17.1521 27.4923 17.2145 27.4879 17.2789L27.4172 18.374Z"
            fill="#453438" />
    </g>
    <path d="M19.0283 0.0244141L18.9731 28.4703H13.9944L15.6569 0.0244141H19.0283Z" fill="#CA0219" />
    <path
        d="M18.533 28.4725C18.5418 28.4725 18.5503 28.469 18.5565 28.4628C18.5627 28.4566 18.5662 28.4481 18.5662 28.4394V0.0575317C18.5662 0.0487484 18.5627 0.0403246 18.5565 0.0341138C18.5503 0.027903 18.5418 0.0244141 18.533 0.0244141C18.5243 0.0244141 18.5158 0.027903 18.5096 0.0341138C18.5034 0.0403246 18.4999 0.0487484 18.4999 0.0575317V28.4394C18.4999 28.4481 18.5034 28.4566 18.5096 28.4628C18.5158 28.469 18.5243 28.4725 18.533 28.4725Z"
        fill="#453438" />
    <path
        d="M14.5456 28.4681C14.554 28.4681 14.5621 28.4649 14.5683 28.4592C14.5744 28.4534 14.5782 28.4455 14.5787 28.4372L16.1662 0.0597401C16.1665 0.055389 16.1659 0.0510202 16.1645 0.0468871C16.1631 0.042754 16.1609 0.0389361 16.1581 0.0356538C16.1552 0.0323715 16.1517 0.0296888 16.1478 0.0277598C16.1439 0.0258307 16.1396 0.0246956 16.1353 0.0244151C16.1266 0.0243473 16.1182 0.0274553 16.1117 0.0331527C16.1052 0.0388501 16.101 0.0467386 16.0999 0.0553228L14.5125 28.4327C14.5122 28.4371 14.5128 28.4415 14.5142 28.4456C14.5156 28.4497 14.5177 28.4535 14.5206 28.4568C14.5235 28.4601 14.527 28.4628 14.5309 28.4647C14.5348 28.4666 14.5391 28.4678 14.5434 28.4681H14.5456Z"
        fill="#453438" />
    <path d="M30.9167 13.2051L1.90568 13.4811L2.24348 16.0576L30.2102 17.6296L30.9167 13.2051Z" fill="#CA0219" />
    <path
        d="M1.95526 13.8986L30.8294 13.7838C30.8382 13.7838 30.8466 13.7803 30.8528 13.7741C30.8591 13.7679 30.8625 13.7594 30.8625 13.7506C30.8625 13.7419 30.8591 13.7334 30.8528 13.7272C30.8466 13.721 30.8382 13.7175 30.8294 13.7175L1.95526 13.8323C1.94648 13.8323 1.93806 13.8358 1.93184 13.842C1.92563 13.8482 1.92214 13.8567 1.92214 13.8655C1.92214 13.8742 1.92563 13.8827 1.93184 13.8889C1.93806 13.8951 1.94648 13.8986 1.95526 13.8986Z"
        fill="#453438" />
    <path
        d="M30.2493 17.429C30.2577 17.4291 30.2658 17.4259 30.2719 17.4201C30.2781 17.4144 30.2818 17.4065 30.2824 17.3981C30.2827 17.3938 30.2821 17.3894 30.2807 17.3853C30.2793 17.3811 30.2771 17.3773 30.2743 17.374C30.2714 17.3708 30.2679 17.3681 30.264 17.3661C30.2601 17.3642 30.2558 17.3631 30.2515 17.3628L2.2472 15.6451C2.24285 15.6448 2.23848 15.6454 2.23435 15.6468C2.23021 15.6481 2.22639 15.6503 2.22311 15.6532C2.21983 15.6561 2.21715 15.6596 2.21522 15.6635C2.21329 15.6674 2.21215 15.6717 2.21187 15.676C2.2118 15.6847 2.21491 15.693 2.22061 15.6995C2.22631 15.7061 2.2342 15.7103 2.24278 15.7113L30.2471 17.429H30.2493Z"
        fill="#453438" />
    <path opacity="0.4" d="M18.9963 16.9982L14.68 16.7554L14.6668 16.9982L18.9963 17.336V16.9982Z" fill="#8B0010" />
    <path opacity="0.4" d="M18.9963 13.3178L14.8787 13.3575L14.8875 13.2317L18.9963 13.1279V13.3178Z" fill="#8B0010" />
</svg>