<svg width="17" height="16" viewBox="0 0 17 16" fill="none" xmlns="http://www.w3.org/2000/svg">
<rect x="0.75" y="0.5" width="15" height="15" rx="7.5" fill="white"/>
<path fill-rule="evenodd" clip-rule="evenodd" d="M10.7499 6.83333V5.5C10.7499 4.11933 9.63059 3 8.24992 3C6.86925 3 5.74992 4.11933 5.74992 5.5V6.83333H4.91659C4.73242 6.83333 4.58325 6.9825 4.58325 7.16667V10.5C4.58325 11.8807 5.70259 13 7.08325 13H9.41659C10.7973 13 11.9166 11.8807 11.9166 10.5V7.16667C11.9166 6.9825 11.7674 6.83333 11.5833 6.83333H10.7499ZM9.74992 5.5C9.74992 4.67283 9.07709 4 8.24992 4C7.42275 4 6.74992 4.67283 6.74992 5.5V6.83333H9.74992V5.5ZM8.24992 11.3333C7.97375 11.3333 7.74992 11.1095 7.74992 10.8333V8.83333C7.74992 8.55717 7.97375 8.33333 8.24992 8.33333C8.52609 8.33333 8.74992 8.55717 8.74992 8.83333V10.8333C8.74992 11.1095 8.52609 11.3333 8.24992 11.3333Z" fill="url(#paint0_linear_60814_3638)"/>
<rect x="0.75" y="0.5" width="15" height="15" rx="7.5" stroke="url(#paint1_linear_60814_3638)"/>
<defs>
<linearGradient id="paint0_linear_60814_3638" x1="8.24992" y1="3" x2="8.24992" y2="13" gradientUnits="userSpaceOnUse">
<stop stop-color="#6A86EB"/>
<stop offset="0.553516" stop-color="#010203"/>
</linearGradient>
<linearGradient id="paint1_linear_60814_3638" x1="8.25" y1="0" x2="8.25" y2="16" gradientUnits="userSpaceOnUse">
<stop stop-color="#6A86EB"/>
<stop offset="0.553516" stop-color="#010203"/>
</linearGradient>
</defs>
</svg>
